<?xml version="1.0" encoding="UTF-8" standalone="no"?>
<!DOCTYPE svg PUBLIC "-//W3C//DTD SVG 1.1//EN" "http://www.w3.org/Graphics/SVG/1.1/DTD/svg11.dtd">
<svg xmlns="http://www.w3.org/2000/svg" version="1.1" viewBox="0.00 0.00 443.00 444.00">
<g stroke-width="2.00" fill="none" stroke-linecap="butt">
<path stroke="#9ca1ff" vector-effect="non-scaling-stroke" d="
  M 200.01 32.69
  A 20.94 20.94 0.0 0 0 179.07 11.75
  L 33.71 11.75
  A 20.94 20.94 0.0 0 0 12.77 32.69
  L 12.77 178.07
  A 20.94 20.94 0.0 0 0 33.71 199.01
  L 179.07 199.01
  A 20.94 20.94 0.0 0 0 200.01 178.07
  L 200.01 32.69"
/>
<path stroke="#9ca1ff" vector-effect="non-scaling-stroke" d="
  M 428.99 32.69
  A 20.94 20.94 0.0 0 0 408.05 11.75
  L 262.69 11.75
  A 20.94 20.94 0.0 0 0 241.75 32.69
  L 241.75 178.07
  A 20.94 20.94 0.0 0 0 262.69 199.01
  L 408.05 199.01
  A 20.94 20.94 0.0 0 0 428.99 178.07
  L 428.99 32.69"
/>
<path stroke="#9ca1ff" vector-effect="non-scaling-stroke" d="
  M 199.8930 261.5167
  A 20.94 20.94 0.0 0 0 178.9165 240.6133
  L 33.5367 240.8670
  A 20.94 20.94 0.0 0 0 12.6333 261.8435
  L 12.8870 407.2233
  A 20.94 20.94 0.0 0 0 33.8635 428.1267
  L 179.2433 427.8730
  A 20.94 20.94 0.0 0 0 200.1467 406.8965
  L 199.8930 261.5167"
/>
<path stroke="#9ca1ff" vector-effect="non-scaling-stroke" d="
  M 428.8730 261.5467
  A 20.97 20.97 0.0 0 0 407.8665 240.6133
  L 262.5467 240.8670
  A 20.97 20.97 0.0 0 0 241.6133 261.8735
  L 241.8670 407.1933
  A 20.97 20.97 0.0 0 0 262.8735 428.1267
  L 408.1933 427.8730
  A 20.97 20.97 0.0 0 0 429.1267 406.8665
  L 428.8730 261.5467"
/>
<path stroke="#9ca1ff" vector-effect="non-scaling-stroke" d="
  M 158.50 54.06
  A 0.68 0.68 0.0 0 0 157.82 53.38
  L 55.18 53.38
  A 0.68 0.68 0.0 0 0 54.50 54.06
  L 54.50 156.82
  A 0.68 0.68 0.0 0 0 55.18 157.50
  L 157.82 157.50
  A 0.68 0.68 0.0 0 0 158.50 156.82
  L 158.50 54.06"
/>
<path stroke="#9ca1ff" vector-effect="non-scaling-stroke" d="
  M 387.49 54.34
  A 1.00 1.00 0.0 0 0 386.49 53.34
  L 284.25 53.34
  A 1.00 1.00 0.0 0 0 283.25 54.34
  L 283.25 156.50
  A 1.00 1.00 0.0 0 0 284.25 157.50
  L 386.49 157.50
  A 1.00 1.00 0.0 0 0 387.49 156.50
  L 387.49 54.34"
/>
<path stroke="#9ca1ff" vector-effect="non-scaling-stroke" d="
  M 158.50 282.88
  A 0.63 0.63 0.0 0 0 157.87 282.25
  L 55.13 282.25
  A 0.63 0.63 0.0 0 0 54.50 282.88
  L 54.50 385.62
  A 0.63 0.63 0.0 0 0 55.13 386.25
  L 157.87 386.25
  A 0.63 0.63 0.0 0 0 158.50 385.62
  L 158.50 282.88"
/>
<path stroke="#9ca1ff" vector-effect="non-scaling-stroke" d="
  M 387.49 282.99
  A 0.74 0.74 0.0 0 0 386.75 282.25
  L 283.99 282.25
  A 0.74 0.74 0.0 0 0 283.25 282.99
  L 283.25 385.51
  A 0.74 0.74 0.0 0 0 283.99 386.25
  L 386.75 386.25
  A 0.74 0.74 0.0 0 0 387.49 385.51
  L 387.49 282.99"
/>
</g>
<path fill="#ffffff" d="
  M 0.00 0.00
  L 443.00 0.00
  L 443.00 444.00
  L 0.00 444.00
  L 0.00 0.00
  Z
  M 200.01 32.69
  A 20.94 20.94 0.0 0 0 179.07 11.75
  L 33.71 11.75
  A 20.94 20.94 0.0 0 0 12.77 32.69
  L 12.77 178.07
  A 20.94 20.94 0.0 0 0 33.71 199.01
  L 179.07 199.01
  A 20.94 20.94 0.0 0 0 200.01 178.07
  L 200.01 32.69
  Z
  M 428.99 32.69
  A 20.94 20.94 0.0 0 0 408.05 11.75
  L 262.69 11.75
  A 20.94 20.94 0.0 0 0 241.75 32.69
  L 241.75 178.07
  A 20.94 20.94 0.0 0 0 262.69 199.01
  L 408.05 199.01
  A 20.94 20.94 0.0 0 0 428.99 178.07
  L 428.99 32.69
  Z
  M 199.8930 261.5167
  A 20.94 20.94 0.0 0 0 178.9165 240.6133
  L 33.5367 240.8670
  A 20.94 20.94 0.0 0 0 12.6333 261.8435
  L 12.8870 407.2233
  A 20.94 20.94 0.0 0 0 33.8635 428.1267
  L 179.2433 427.8730
  A 20.94 20.94 0.0 0 0 200.1467 406.8965
  L 199.8930 261.5167
  Z
  M 428.8730 261.5467
  A 20.97 20.97 0.0 0 0 407.8665 240.6133
  L 262.5467 240.8670
  A 20.97 20.97 0.0 0 0 241.6133 261.8735
  L 241.8670 407.1933
  A 20.97 20.97 0.0 0 0 262.8735 428.1267
  L 408.1933 427.8730
  A 20.97 20.97 0.0 0 0 429.1267 406.8665
  L 428.8730 261.5467
  Z"
/>
<path fill="#3843ff" d="
  M 200.01 178.07
  A 20.94 20.94 0.0 0 1 179.07 199.01
  L 33.71 199.01
  A 20.94 20.94 0.0 0 1 12.77 178.07
  L 12.77 32.69
  A 20.94 20.94 0.0 0 1 33.71 11.75
  L 179.07 11.75
  A 20.94 20.94 0.0 0 1 200.01 32.69
  L 200.01 178.07
  Z
  M 158.50 54.06
  A 0.68 0.68 0.0 0 0 157.82 53.38
  L 55.18 53.38
  A 0.68 0.68 0.0 0 0 54.50 54.06
  L 54.50 156.82
  A 0.68 0.68 0.0 0 0 55.18 157.50
  L 157.82 157.50
  A 0.68 0.68 0.0 0 0 158.50 156.82
  L 158.50 54.06
  Z"
/>
<path fill="#3843ff" d="
  M 428.99 178.07
  A 20.94 20.94 0.0 0 1 408.05 199.01
  L 262.69 199.01
  A 20.94 20.94 0.0 0 1 241.75 178.07
  L 241.75 32.69
  A 20.94 20.94 0.0 0 1 262.69 11.75
  L 408.05 11.75
  A 20.94 20.94 0.0 0 1 428.99 32.69
  L 428.99 178.07
  Z
  M 387.49 54.34
  A 1.00 1.00 0.0 0 0 386.49 53.34
  L 284.25 53.34
  A 1.00 1.00 0.0 0 0 283.25 54.34
  L 283.25 156.50
  A 1.00 1.00 0.0 0 0 284.25 157.50
  L 386.49 157.50
  A 1.00 1.00 0.0 0 0 387.49 156.50
  L 387.49 54.34
  Z"
/>
<rect fill="#ffffff" x="54.50" y="53.38" width="104.00" height="104.12" rx="0.68"/>
<rect fill="#ffffff" x="283.25" y="53.34" width="104.24" height="104.16" rx="1.00"/>
<path fill="#3843ff" d="
  M 200.1467 406.8965
  A 20.94 20.94 0.0 0 1 179.2433 427.8730
  L 33.8635 428.1267
  A 20.94 20.94 0.0 0 1 12.8870 407.2233
  L 12.6333 261.8435
  A 20.94 20.94 0.0 0 1 33.5367 240.8670
  L 178.9165 240.6133
  A 20.94 20.94 0.0 0 1 199.8930 261.5167
  L 200.1467 406.8965
  Z
  M 158.50 282.88
  A 0.63 0.63 0.0 0 0 157.87 282.25
  L 55.13 282.25
  A 0.63 0.63 0.0 0 0 54.50 282.88
  L 54.50 385.62
  A 0.63 0.63 0.0 0 0 55.13 386.25
  L 157.87 386.25
  A 0.63 0.63 0.0 0 0 158.50 385.62
  L 158.50 282.88
  Z"
/>
<path fill="#3843ff" d="
  M 429.1267 406.8665
  A 20.97 20.97 0.0 0 1 408.1933 427.8730
  L 262.8735 428.1267
  A 20.97 20.97 0.0 0 1 241.8670 407.1933
  L 241.6133 261.8735
  A 20.97 20.97 0.0 0 1 262.5467 240.8670
  L 407.8665 240.6133
  A 20.97 20.97 0.0 0 1 428.8730 261.5467
  L 429.1267 406.8665
  Z
  M 387.49 282.99
  A 0.74 0.74 0.0 0 0 386.75 282.25
  L 283.99 282.25
  A 0.74 0.74 0.0 0 0 283.25 282.99
  L 283.25 385.51
  A 0.74 0.74 0.0 0 0 283.99 386.25
  L 386.75 386.25
  A 0.74 0.74 0.0 0 0 387.49 385.51
  L 387.49 282.99
  Z"
/>
<rect fill="#ffffff" x="54.50" y="282.25" width="104.00" height="104.00" rx="0.63"/>
<rect fill="#ffffff" x="283.25" y="282.25" width="104.24" height="104.00" rx="0.74"/>
</svg>
