<svg xmlns="http://www.w3.org/2000/svg" width="48" height="48" fill="none"><g filter="url(#a)"><circle cx="24" cy="24" r="20.25" fill="#737472"/></g><g fill-rule="evenodd" clip-rule="evenodd" filter="url(#b)"><path fill="url(#c)" d="m12.308 23.387-1.505-.265 1.526-.111c.02-.268.05-.533.087-.795l-1.457-.412 1.517.041c.047-.265.103-.527.168-.786l-1.396-.554 1.492.191c.075-.26.158-.516.25-.768l-1.323-.685 1.455.34c.101-.252.21-.5.328-.743l-1.233-.813 1.403.483c.127-.24.261-.476.404-.707l-1.148-.927 1.344.62c.15-.228.309-.449.475-.665l-1.041-1.034 1.268.749c.173-.21.354-.415.542-.613l-.928-1.13 1.183.87c.194-.192.394-.377.602-.556l-.807-1.211 1.085.982c.213-.172.433-.336.657-.492l-.678-1.285.978 1.084c.23-.15.465-.29.705-.423l-.543-1.347.861 1.177c.242-.125.491-.242.746-.35l-.404-1.393.739 1.258c.255-.1.514-.19.777-.27l-.262-1.43.61 1.329c.262-.074.529-.138.799-.192l-.116-1.451.473 1.387c.268-.045.539-.08.813-.105l.032-1.463.33 1.435c.241-.016.483-.024.727-.024h.091l.181-1.458.185 1.466c.274.01.545.03.813.06l.329-1.438.036 1.485c.27.038.537.085.8.142l.475-1.403-.115 1.488c.264.064.524.138.779.223l.62-1.357-.267 1.478c.253.091.503.192.748.301l.758-1.297-.418 1.453c.241.117.478.242.71.374l.893-1.224-.57 1.416c.227.14.449.286.665.44l1.02-1.137-.715 1.364c.21.16.415.329.613.503l1.142-1.038-.86 1.3c.191.18.376.367.555.56l1.255-.924-.993 1.212c.17.197.335.4.492.608l1.35-.801-1.12 1.12c.15.211.292.428.427.651l1.436-.666-1.238 1.005c.126.225.245.453.355.687l1.51-.522-1.345.885c.103.234.197.472.282.714l1.569-.37-1.443.75c.077.243.145.488.206.736l1.616-.212-1.522.607c.05.246.093.495.128.747l1.641-.048-1.59.453c.024.246.042.497.052.752l1.652.12-1.642.288v.043c0 .237-.009.472-.023.705l1.645.288-1.677.128c-.024.248-.056.494-.095.738l1.617.456-1.691-.044a11.27 11.27 0 0 1-.169.72l1.573.624-1.691-.219c-.072.236-.153.468-.24.697l1.511.78-1.667-.386a12.15 12.15 0 0 1-.308.665l1.432.935-1.629-.557a11.51 11.51 0 0 1-.371.629l1.34 1.084-1.573-.723c-.137.2-.28.396-.43.587l1.227 1.215-1.5-.886c-.156.186-.318.366-.485.54l1.101 1.34-1.403-1.033c-.174.17-.352.333-.535.49l.963 1.446-1.296-1.171c-.189.15-.383.293-.58.43l.812 1.538-1.171-1.296c-.203.13-.41.253-.62.37l.652 1.612-1.034-1.408c-.214.109-.433.212-.654.307l.483 1.669-.885-1.505c-.224.087-.452.167-.683.24l.32 1.708-.734-1.585c-.23.064-.464.121-.701.17l.14 1.73-.567-1.649c-.237.04-.476.074-.718.1l-.036 1.73-.39-1.694c-.248.02-.499.029-.751.029l-.215 1.712-.217-1.72a12.136 12.136 0 0 1-.727-.045l-.383 1.674-.04-1.721a11.288 11.288 0 0 1-.722-.12l-.548 1.618.134-1.708c-.24-.056-.477-.12-.71-.19l-.706 1.544.304-1.675c-.234-.081-.464-.17-.69-.264l-.853 1.456.47-1.625a11.306 11.306 0 0 1-.665-.334l-.99 1.354.628-1.56a11.792 11.792 0 0 1-.63-.4l-1.114 1.238.777-1.478a11.315 11.315 0 0 1-.59-.465l-1.225 1.112.915-1.381c-.187-.17-.368-.345-.543-.525l-1.32.974 1.042-1.27a11.47 11.47 0 0 1-.491-.58l-1.4.828 1.155-1.147a11.624 11.624 0 0 1-.435-.631l-1.461.676 1.253-1.016a11.55 11.55 0 0 1-.371-.676l-1.508.52 1.336-.877a11.89 11.89 0 0 1-.302-.715l-1.538.362 1.403-.73c-.084-.246-.16-.495-.228-.748l-1.553.203 1.458-.58a11.39 11.39 0 0 1-.152-.77l-1.552.044 1.497-.425c-.034-.26-.058-.522-.073-.787l-1.537-.115 1.52-.269c-.004-.102-.004-.205-.004-.307 0-.163.004-.326.01-.487zm11.598 10.481c5.45 0 9.869-4.418 9.869-9.868s-4.419-9.868-9.869-9.868S14.038 18.55 14.038 24s4.418 9.868 9.868 9.868z"/><path fill="url(#d)" fill-opacity=".1" d="m12.308 23.387-1.505-.265 1.526-.111c.02-.268.05-.533.087-.795l-1.457-.412 1.517.041c.047-.265.103-.527.168-.786l-1.396-.554 1.492.191c.075-.26.158-.516.25-.768l-1.323-.685 1.455.34c.101-.252.21-.5.328-.743l-1.233-.813 1.403.483c.127-.24.261-.476.404-.707l-1.148-.927 1.344.62c.15-.228.309-.449.475-.665l-1.041-1.034 1.268.749c.173-.21.354-.415.542-.613l-.928-1.13 1.183.87c.194-.192.394-.377.602-.556l-.807-1.211 1.085.982c.213-.172.433-.336.657-.492l-.678-1.285.978 1.084c.23-.15.465-.29.705-.423l-.543-1.347.861 1.177c.242-.125.491-.242.746-.35l-.404-1.393.739 1.258c.255-.1.514-.19.777-.27l-.262-1.43.61 1.329c.262-.074.529-.138.799-.192l-.116-1.451.473 1.387c.268-.045.539-.08.813-.105l.032-1.463.33 1.435c.241-.016.483-.024.727-.024h.091l.181-1.458.185 1.466c.274.01.545.03.813.06l.329-1.438.036 1.485c.27.038.537.085.8.142l.475-1.403-.115 1.488c.264.064.524.138.779.223l.62-1.357-.267 1.478c.253.091.503.192.748.301l.758-1.297-.418 1.453c.241.117.478.242.71.374l.893-1.224-.57 1.416c.227.14.449.286.665.44l1.02-1.137-.715 1.364c.21.16.415.329.613.503l1.142-1.038-.86 1.3c.191.18.376.367.555.56l1.255-.924-.993 1.212c.17.197.335.4.492.608l1.35-.801-1.12 1.12c.15.211.292.428.427.651l1.436-.666-1.238 1.005c.126.225.245.453.355.687l1.51-.522-1.345.885c.103.234.197.472.282.714l1.569-.37-1.443.75c.077.243.145.488.206.736l1.616-.212-1.522.607c.05.246.093.495.128.747l1.641-.048-1.59.453c.024.246.042.497.052.752l1.652.12-1.642.288v.043c0 .237-.009.472-.023.705l1.645.288-1.677.128c-.024.248-.056.494-.095.738l1.617.456-1.691-.044a11.27 11.27 0 0 1-.169.72l1.573.624-1.691-.219c-.072.236-.153.468-.24.697l1.511.78-1.667-.386a12.15 12.15 0 0 1-.308.665l1.432.935-1.629-.557a11.51 11.51 0 0 1-.371.629l1.34 1.084-1.573-.723c-.137.2-.28.396-.43.587l1.227 1.215-1.5-.886c-.156.186-.318.366-.485.54l1.101 1.34-1.403-1.033c-.174.17-.352.333-.535.49l.963 1.446-1.296-1.171c-.189.15-.383.293-.58.43l.812 1.538-1.171-1.296c-.203.13-.41.253-.62.37l.652 1.612-1.034-1.408c-.214.109-.433.212-.654.307l.483 1.669-.885-1.505c-.224.087-.452.167-.683.24l.32 1.708-.734-1.585c-.23.064-.464.121-.701.17l.14 1.73-.567-1.649c-.237.04-.476.074-.718.1l-.036 1.73-.39-1.694c-.248.02-.499.029-.751.029l-.215 1.712-.217-1.72a12.136 12.136 0 0 1-.727-.045l-.383 1.674-.04-1.721a11.288 11.288 0 0 1-.722-.12l-.548 1.618.134-1.708c-.24-.056-.477-.12-.71-.19l-.706 1.544.304-1.675c-.234-.081-.464-.17-.69-.264l-.853 1.456.47-1.625a11.306 11.306 0 0 1-.665-.334l-.99 1.354.628-1.56a11.792 11.792 0 0 1-.63-.4l-1.114 1.238.777-1.478a11.315 11.315 0 0 1-.59-.465l-1.225 1.112.915-1.381c-.187-.17-.368-.345-.543-.525l-1.32.974 1.042-1.27a11.47 11.47 0 0 1-.491-.58l-1.4.828 1.155-1.147a11.624 11.624 0 0 1-.435-.631l-1.461.676 1.253-1.016a11.55 11.55 0 0 1-.371-.676l-1.508.52 1.336-.877a11.89 11.89 0 0 1-.302-.715l-1.538.362 1.403-.73c-.084-.246-.16-.495-.228-.748l-1.553.203 1.458-.58a11.39 11.39 0 0 1-.152-.77l-1.552.044 1.497-.425c-.034-.26-.058-.522-.073-.787l-1.537-.115 1.52-.269c-.004-.102-.004-.205-.004-.307 0-.163.004-.326.01-.487zm11.598 10.481c5.45 0 9.869-4.418 9.869-9.868s-4.419-9.868-9.869-9.868S14.038 18.55 14.038 24s4.418 9.868 9.868 9.868z" style="mix-blend-mode:soft-light"/></g><g fill-rule="evenodd" clip-rule="evenodd" filter="url(#e)"><path fill="url(#f)" d="m6.93 23.086-2.21-.39 2.242-.163c.03-.394.073-.783.128-1.168l-2.14-.607 2.228.061c.069-.39.151-.775.247-1.156l-2.051-.815 2.193.282c.109-.382.231-.759.366-1.13L5.99 16.992l2.138.5c.149-.37.31-.735.482-1.091l-1.813-1.196 2.062.71c.187-.354.385-.7.595-1.04l-1.688-1.363 1.975.91c.222-.333.454-.659.698-.975l-1.53-1.521 1.864 1.1c.255-.31.52-.61.797-.9l-1.364-1.663 1.738 1.281c.285-.283.58-.556.885-.818l-1.185-1.782 1.594 1.445c.313-.253.635-.494.966-.724l-.997-1.889 1.438 1.594c.337-.22.683-.428 1.036-.623l-.798-1.98 1.265 1.73c.356-.184.721-.355 1.096-.514l-.593-2.048 1.085 1.849a16.75 16.75 0 0 1 1.142-.398l-.384-2.1.894 1.952c.387-.109.779-.202 1.176-.281l-.17-2.135.694 2.04a16.65 16.65 0 0 1 1.195-.155l.047-2.15.487 2.11c.353-.023.709-.035 1.067-.035h.134l.266-2.144.272 2.156c.402.015.8.044 1.194.089l.484-2.116L26.287 7c.397.057.79.126 1.176.21l.698-2.063-.17 2.188c.389.094.77.203 1.146.328l.91-1.996-.392 2.173c.373.135.74.282 1.1.443l1.113-1.908-.614 2.137c.355.172.703.356 1.044.55l1.312-1.8-.837 2.082c.334.205.66.421.977.649l1.5-1.674-1.05 2.006c.307.236.608.483.9.74l1.677-1.527-1.264 1.913c.282.265.554.539.816.822l1.844-1.358-1.459 1.782c.251.29.492.589.724.895l1.985-1.179-1.647 1.647c.219.31.428.63.627.958l2.11-.98-1.819 1.479c.185.33.36.666.523 1.01l2.219-.769-1.978 1.302c.152.344.29.694.415 1.05l2.305-.544-2.12 1.104c.113.357.214.717.302 1.081l2.375-.311-2.236.892c.074.362.136.729.188 1.1l2.412-.072-2.338.667c.036.361.062.73.077 1.105l2.429.175-2.415.425v.064c0 .347-.012.693-.032 1.037l2.417.422-2.464.188c-.036.365-.083.727-.14 1.085l2.377.67-2.487-.064c-.07.357-.153.712-.247 1.06l2.31.917-2.484-.321c-.106.346-.224.688-.352 1.024l2.22 1.148-2.45-.57a17.88 17.88 0 0 1-.453.98l2.104 1.375-2.393-.82c-.173.315-.355.623-.546.925l1.969 1.594-2.311-1.063a17.83 17.83 0 0 1-.632.863l1.803 1.787-2.204-1.302c-.23.272-.467.537-.713.794l1.619 1.968-2.063-1.517c-.255.25-.517.49-.786.72l1.415 2.126-1.905-1.722c-.276.22-.562.43-.852.633l1.193 2.262-1.72-1.907c-.298.191-.603.373-.912.545l.959 2.37-1.52-2.07c-.315.16-.636.31-.962.451l.71 2.454-1.3-2.213c-.33.128-.664.246-1.003.354l.468 2.51-1.077-2.33c-.339.094-.682.178-1.031.251l.205 2.542-.832-2.424c-.348.06-.7.108-1.056.146l-.052 2.545-.573-2.49c-.365.027-.733.041-1.105.041l-.315 2.518-.318-2.528a17.804 17.804 0 0 1-1.07-.068l-.562 2.462-.058-2.531a16.566 16.566 0 0 1-1.062-.175l-.806 2.378.197-2.51c-.353-.083-.7-.177-1.044-.282l-1.037 2.272.448-2.463c-.344-.12-.683-.249-1.016-.388l-1.253 2.14.69-2.39a16.465 16.465 0 0 1-.976-.49l-1.454 1.991.922-2.293a17.351 17.351 0 0 1-.926-.59l-1.637 1.821 1.141-2.173a16.553 16.553 0 0 1-.866-.683l-1.8 1.635 1.344-2.032a18.21 18.21 0 0 1-.799-.772L9.77 37.052l1.53-1.869c-.25-.276-.49-.56-.722-.853L8.52 35.55l1.696-1.688c-.222-.302-.436-.61-.639-.928l-2.147.994 1.84-1.494a17.029 17.029 0 0 1-.544-.994l-2.216.764 1.963-1.289a17.536 17.536 0 0 1-.443-1.05l-2.26.53 2.062-1.073a17.169 17.169 0 0 1-.336-1.099l-2.282.298 2.143-.852a17.73 17.73 0 0 1-.224-1.133l-2.28.065 2.199-.625a16.848 16.848 0 0 1-.107-1.157l-2.258-.17 2.233-.395c-.006-.15-.006-.3-.006-.452 0-.24.007-.479.016-.716zm11.798-10.43 5.138 8.799a2.813 2.813 0 0 0 2.429 1.394h9.553c1.688 0 3.017-1.493 2.583-3.124C35.647 9.267 26.236 7.68 20.084 9.04c-1.61.356-2.188 2.19-1.356 3.616zm17.428 11.896-10.19.05a2.81 2.81 0 0 0-2.421 1.406l-4.777 8.274c-.844 1.462-.215 3.359 1.415 3.798C30.63 40.9 36.71 33.542 38.609 27.534c.497-1.573-.803-2.99-2.453-2.982zm-13.973.356-5.052 8.85c-.817 1.432-2.695 1.85-3.809.632-4.253-4.648-7.585-13.59.08-21.23 1.196-1.192 3.153-.788 3.997.674l4.777 8.273c.5.866.502 1.933.007 2.8zm2.59-1.262a.844.844 0 1 1-1.687 0 .844.844 0 0 1 1.688 0z"/><path fill="url(#g)" fill-opacity=".1" d="m6.93 23.086-2.21-.39 2.242-.163c.03-.394.073-.783.128-1.168l-2.14-.607 2.228.061c.069-.39.151-.775.247-1.156l-2.051-.815 2.193.282c.109-.382.231-.759.366-1.13L5.99 16.992l2.138.5c.149-.37.31-.735.482-1.091l-1.813-1.196 2.062.71c.187-.354.385-.7.595-1.04l-1.688-1.363 1.975.91c.222-.333.454-.659.698-.975l-1.53-1.521 1.864 1.1c.255-.31.52-.61.797-.9l-1.364-1.663 1.738 1.281c.285-.283.58-.556.885-.818l-1.185-1.782 1.594 1.445c.313-.253.635-.494.966-.724l-.997-1.889 1.438 1.594c.337-.22.683-.428 1.036-.623l-.798-1.98 1.265 1.73c.356-.184.721-.355 1.096-.514l-.593-2.048 1.085 1.849a16.75 16.75 0 0 1 1.142-.398l-.384-2.1.894 1.952c.387-.109.779-.202 1.176-.281l-.17-2.135.694 2.04a16.65 16.65 0 0 1 1.195-.155l.047-2.15.487 2.11c.353-.023.709-.035 1.067-.035h.134l.266-2.144.272 2.156c.402.015.8.044 1.194.089l.484-2.116L26.287 7c.397.057.79.126 1.176.21l.698-2.063-.17 2.188c.389.094.77.203 1.146.328l.91-1.996-.392 2.173c.373.135.74.282 1.1.443l1.113-1.908-.614 2.137c.355.172.703.356 1.044.55l1.312-1.8-.837 2.082c.334.205.66.421.977.649l1.5-1.674-1.05 2.006c.307.236.608.483.9.74l1.677-1.527-1.264 1.913c.282.265.554.539.816.822l1.844-1.358-1.459 1.782c.251.29.492.589.724.895l1.985-1.179-1.647 1.647c.219.31.428.63.627.958l2.11-.98-1.819 1.479c.185.33.36.666.523 1.01l2.219-.769-1.978 1.302c.152.344.29.694.415 1.05l2.305-.544-2.12 1.104c.113.357.214.717.302 1.081l2.375-.311-2.236.892c.074.362.136.729.188 1.1l2.412-.072-2.338.667c.036.361.062.73.077 1.105l2.429.175-2.415.425v.064c0 .347-.012.693-.032 1.037l2.417.422-2.464.188c-.036.365-.083.727-.14 1.085l2.377.67-2.487-.064c-.07.357-.153.712-.247 1.06l2.31.917-2.484-.321c-.106.346-.224.688-.352 1.024l2.22 1.148-2.45-.57a17.88 17.88 0 0 1-.453.98l2.104 1.375-2.393-.82c-.173.315-.355.623-.546.925l1.969 1.594-2.311-1.063a17.83 17.83 0 0 1-.632.863l1.803 1.787-2.204-1.302c-.23.272-.467.537-.713.794l1.619 1.968-2.063-1.517c-.255.25-.517.49-.786.72l1.415 2.126-1.905-1.722c-.276.22-.562.43-.852.633l1.193 2.262-1.72-1.907c-.298.191-.603.373-.912.545l.959 2.37-1.52-2.07c-.315.16-.636.31-.962.451l.71 2.454-1.3-2.213c-.33.128-.664.246-1.003.354l.468 2.51-1.077-2.33c-.339.094-.682.178-1.031.251l.205 2.542-.832-2.424c-.348.06-.7.108-1.056.146l-.052 2.545-.573-2.49c-.365.027-.733.041-1.105.041l-.315 2.518-.318-2.528a17.804 17.804 0 0 1-1.07-.068l-.562 2.462-.058-2.531a16.566 16.566 0 0 1-1.062-.175l-.806 2.378.197-2.51c-.353-.083-.7-.177-1.044-.282l-1.037 2.272.448-2.463c-.344-.12-.683-.249-1.016-.388l-1.253 2.14.69-2.39a16.465 16.465 0 0 1-.976-.49l-1.454 1.991.922-2.293a17.351 17.351 0 0 1-.926-.59l-1.637 1.821 1.141-2.173a16.553 16.553 0 0 1-.866-.683l-1.8 1.635 1.344-2.032a18.21 18.21 0 0 1-.799-.772L9.77 37.052l1.53-1.869c-.25-.276-.49-.56-.722-.853L8.52 35.55l1.696-1.688c-.222-.302-.436-.61-.639-.928l-2.147.994 1.84-1.494a17.029 17.029 0 0 1-.544-.994l-2.216.764 1.963-1.289a17.536 17.536 0 0 1-.443-1.05l-2.26.53 2.062-1.073a17.169 17.169 0 0 1-.336-1.099l-2.282.298 2.143-.852a17.73 17.73 0 0 1-.224-1.133l-2.28.065 2.199-.625a16.848 16.848 0 0 1-.107-1.157l-2.258-.17 2.233-.395c-.006-.15-.006-.3-.006-.452 0-.24.007-.479.016-.716zm11.798-10.43 5.138 8.799a2.813 2.813 0 0 0 2.429 1.394h9.553c1.688 0 3.017-1.493 2.583-3.124C35.647 9.267 26.236 7.68 20.084 9.04c-1.61.356-2.188 2.19-1.356 3.616zm17.428 11.896-10.19.05a2.81 2.81 0 0 0-2.421 1.406l-4.777 8.274c-.844 1.462-.215 3.359 1.415 3.798C30.63 40.9 36.71 33.542 38.609 27.534c.497-1.573-.803-2.99-2.453-2.982zm-13.973.356-5.052 8.85c-.817 1.432-2.695 1.85-3.809.632-4.253-4.648-7.585-13.59.08-21.23 1.196-1.192 3.153-.788 3.997.674l4.777 8.273c.5.866.502 1.933.007 2.8zm2.59-1.262a.844.844 0 1 1-1.687 0 .844.844 0 0 1 1.688 0z" style="mix-blend-mode:soft-light"/></g><g filter="url(#h)"><circle cx="24" cy="24" r="20.25" fill="#737472" fill-opacity=".01"/></g><g fill-rule="evenodd" clip-rule="evenodd" filter="url(#i)"><path fill="url(#j)" d="M1.124 5.63C0 7.838 0 10.726 0 16.5v15c0 5.776 0 8.663 1.124 10.87a10.313 10.313 0 0 0 4.507 4.506C7.837 48 10.725 48 16.5 48h15c5.776 0 8.663 0 10.87-1.124a10.313 10.313 0 0 0 4.506-4.507C48 40.163 48 37.276 48 31.5v-15c0-5.775 0-8.663-1.124-10.87a10.313 10.313 0 0 0-4.507-4.506C40.163 0 37.276 0 31.5 0h-15C10.725 0 7.837 0 5.63 1.124a10.312 10.312 0 0 0-4.506 4.507zM24 44.25c11.184 0 20.25-9.066 20.25-20.25S35.184 3.75 24 3.75 3.75 12.816 3.75 24 12.816 44.25 24 44.25z"/><path fill="url(#k)" fill-opacity=".1" d="M1.124 5.63C0 7.838 0 10.726 0 16.5v15c0 5.776 0 8.663 1.124 10.87a10.313 10.313 0 0 0 4.507 4.506C7.837 48 10.725 48 16.5 48h15c5.776 0 8.663 0 10.87-1.124a10.313 10.313 0 0 0 4.506-4.507C48 40.163 48 37.276 48 31.5v-15c0-5.775 0-8.663-1.124-10.87a10.313 10.313 0 0 0-4.507-4.506C40.163 0 37.276 0 31.5 0h-15C10.725 0 7.837 0 5.63 1.124a10.312 10.312 0 0 0-4.506 4.507zM24 44.25c11.184 0 20.25-9.066 20.25-20.25S35.184 3.75 24 3.75 3.75 12.816 3.75 24 12.816 44.25 24 44.25z" style="mix-blend-mode:soft-light"/></g><defs><linearGradient id="c" x1="23.906" x2="23.906" y1="10.875" y2="37.125" gradientUnits="userSpaceOnUse"><stop stop-color="#D2E2E8"/><stop offset="1" stop-color="#949491"/></linearGradient><linearGradient id="d" x1="23.906" x2="23.906" y1="10.875" y2="37.125" gradientUnits="userSpaceOnUse"><stop offset=".151" stop-color="#fff"/><stop offset="1" stop-opacity=".1"/></linearGradient><linearGradient id="f" x1="23.977" x2="23.977" y1="4.688" y2="43.288" gradientUnits="userSpaceOnUse"><stop stop-color="#D2E2E8"/><stop offset="1" stop-color="#949491"/></linearGradient><linearGradient id="g" x1="23.977" x2="23.977" y1="4.688" y2="43.288" gradientUnits="userSpaceOnUse"><stop offset=".151" stop-color="#fff"/><stop offset="1" stop-opacity=".1"/></linearGradient><linearGradient id="j" x1="24" x2="24" y1="0" y2="48" gradientUnits="userSpaceOnUse"><stop stop-color="#D2E2E8"/><stop offset="1" stop-color="#949491"/></linearGradient><linearGradient id="k" x1="24" x2="24" y1="0" y2="48" gradientUnits="userSpaceOnUse"><stop offset=".151" stop-color="#fff"/><stop offset="1" stop-opacity=".1"/></linearGradient><filter id="a" width="40.5" height="44.344" x="3.75" y="3.656" color-interpolation-filters="sRGB" filterUnits="userSpaceOnUse"><feFlood flood-opacity="0" result="BackgroundImageFix"/><feBlend in="SourceGraphic" in2="BackgroundImageFix" result="shape"/><feColorMatrix in="SourceAlpha" result="hardAlpha" values="0 0 0 0 0 0 0 0 0 0 0 0 0 0 0 0 0 0 127 0"/><feOffset dy="-.375"/><feGaussianBlur stdDeviation=".047"/><feComposite in2="hardAlpha" k2="-1" k3="1" operator="arithmetic"/><feColorMatrix values="0 0 0 0 1 0 0 0 0 1 0 0 0 0 1 0 0 0 0.8 0"/><feBlend in2="shape" mode="overlay" result="effect1_innerShadow_577_8541"/><feColorMatrix in="SourceAlpha" result="hardAlpha" values="0 0 0 0 0 0 0 0 0 0 0 0 0 0 0 0 0 0 127 0"/><feOffset dy="3.75"/><feGaussianBlur stdDeviation="2.813"/><feComposite in2="hardAlpha" k2="-1" k3="1" operator="arithmetic"/><feColorMatrix values="0 0 0 0 0 0 0 0 0 0 0 0 0 0 0 0 0 0 0.6 0"/><feBlend in2="effect1_innerShadow_577_8541" result="effect2_innerShadow_577_8541"/></filter><filter id="b" width="33.75" height="34.688" x="7.031" y="10.313" color-interpolation-filters="sRGB" filterUnits="userSpaceOnUse"><feFlood flood-opacity="0" result="BackgroundImageFix"/><feColorMatrix in="SourceAlpha" result="hardAlpha" values="0 0 0 0 0 0 0 0 0 0 0 0 0 0 0 0 0 0 127 0"/><feOffset dy="1.875"/><feGaussianBlur stdDeviation="1.219"/><feColorMatrix values="0 0 0 0 0 0 0 0 0 0 0 0 0 0 0 0 0 0 1 0"/><feBlend in2="BackgroundImageFix" result="effect1_dropShadow_577_8541"/><feColorMatrix in="SourceAlpha" result="hardAlpha" values="0 0 0 0 0 0 0 0 0 0 0 0 0 0 0 0 0 0 127 0"/><feOffset dy="4.125"/><feGaussianBlur stdDeviation="1.875"/><feColorMatrix values="0 0 0 0 0 0 0 0 0 0 0 0 0 0 0 0 0 0 0.5 0"/><feBlend in2="effect1_dropShadow_577_8541" result="effect2_dropShadow_577_8541"/><feBlend in="SourceGraphic" in2="effect2_dropShadow_577_8541" result="shape"/><feColorMatrix in="SourceAlpha" result="hardAlpha" values="0 0 0 0 0 0 0 0 0 0 0 0 0 0 0 0 0 0 127 0"/><feOffset dy=".75"/><feGaussianBlur stdDeviation=".938"/><feComposite in2="hardAlpha" k2="-1" k3="1" operator="arithmetic"/><feColorMatrix values="0 0 0 0 0 0 0 0 0 0 0 0 0 0 0 0 0 0 0.16 0"/><feBlend in2="shape" result="effect3_innerShadow_577_8541"/><feColorMatrix in="SourceAlpha" result="hardAlpha" values="0 0 0 0 0 0 0 0 0 0 0 0 0 0 0 0 0 0 127 0"/><feOffset dy=".281"/><feGaussianBlur stdDeviation=".094"/><feComposite in2="hardAlpha" k2="-1" k3="1" operator="arithmetic"/><feColorMatrix values="0 0 0 0 1 0 0 0 0 1 0 0 0 0 1 0 0 0 0.6 0"/><feBlend in2="effect3_innerShadow_577_8541" result="effect4_innerShadow_577_8541"/></filter><filter id="e" width="46.078" height="46.102" x=".938" y="3.75" color-interpolation-filters="sRGB" filterUnits="userSpaceOnUse"><feFlood flood-opacity="0" result="BackgroundImageFix"/><feColorMatrix in="SourceAlpha" result="hardAlpha" values="0 0 0 0 0 0 0 0 0 0 0 0 0 0 0 0 0 0 127 0"/><feOffset dy="2.344"/><feGaussianBlur stdDeviation="1.219"/><feColorMatrix values="0 0 0 0 0 0 0 0 0 0 0 0 0 0 0 0 0 0 1 0"/><feBlend in2="BackgroundImageFix" result="effect1_dropShadow_577_8541"/><feColorMatrix in="SourceAlpha" result="hardAlpha" values="0 0 0 0 0 0 0 0 0 0 0 0 0 0 0 0 0 0 127 0"/><feOffset dy="2.813"/><feGaussianBlur stdDeviation="1.875"/><feColorMatrix values="0 0 0 0 0 0 0 0 0 0 0 0 0 0 0 0 0 0 0.6 0"/><feBlend in2="effect1_dropShadow_577_8541" result="effect2_dropShadow_577_8541"/><feBlend in="SourceGraphic" in2="effect2_dropShadow_577_8541" result="shape"/><feColorMatrix in="SourceAlpha" result="hardAlpha" values="0 0 0 0 0 0 0 0 0 0 0 0 0 0 0 0 0 0 127 0"/><feOffset dy=".75"/><feGaussianBlur stdDeviation=".938"/><feComposite in2="hardAlpha" k2="-1" k3="1" operator="arithmetic"/><feColorMatrix values="0 0 0 0 0 0 0 0 0 0 0 0 0 0 0 0 0 0 0.16 0"/><feBlend in2="shape" result="effect3_innerShadow_577_8541"/><feColorMatrix in="SourceAlpha" result="hardAlpha" values="0 0 0 0 0 0 0 0 0 0 0 0 0 0 0 0 0 0 127 0"/><feOffset dy=".281"/><feGaussianBlur stdDeviation=".094"/><feComposite in2="hardAlpha" k2="-1" k3="1" operator="arithmetic"/><feColorMatrix values="0 0 0 0 1 0 0 0 0 1 0 0 0 0 1 0 0 0 0.6 0"/><feBlend in2="effect3_innerShadow_577_8541" result="effect4_innerShadow_577_8541"/></filter><filter id="h" width="40.5" height="43.313" x="3.75" y="3.75" color-interpolation-filters="sRGB" filterUnits="userSpaceOnUse"><feFlood flood-opacity="0" result="BackgroundImageFix"/><feBlend in="SourceGraphic" in2="BackgroundImageFix" result="shape"/><feColorMatrix in="SourceAlpha" result="hardAlpha" values="0 0 0 0 0 0 0 0 0 0 0 0 0 0 0 0 0 0 127 0"/><feOffset dy="2.813"/><feGaussianBlur stdDeviation="2.813"/><feComposite in2="hardAlpha" k2="-1" k3="1" operator="arithmetic"/><feColorMatrix values="0 0 0 0 0 0 0 0 0 0 0 0 0 0 0 0 0 0 0.7 0"/><feBlend in2="shape" result="effect1_innerShadow_577_8541"/></filter><filter id="i" width="48.75" height="48.938" x="-.75" y="-.75" color-interpolation-filters="sRGB" filterUnits="userSpaceOnUse"><feFlood flood-opacity="0" result="BackgroundImageFix"/><feBlend in="SourceGraphic" in2="BackgroundImageFix" result="shape"/><feColorMatrix in="SourceAlpha" result="hardAlpha" values="0 0 0 0 0 0 0 0 0 0 0 0 0 0 0 0 0 0 127 0"/><feOffset dx="-.75" dy="-.75"/><feGaussianBlur stdDeviation=".375"/><feComposite in2="hardAlpha" k2="-1" k3="1" operator="arithmetic"/><feColorMatrix values="0 0 0 0 0 0 0 0 0 0 0 0 0 0 0 0 0 0 0.05 0"/><feBlend in2="shape" result="effect1_innerShadow_577_8541"/><feColorMatrix in="SourceAlpha" result="hardAlpha" values="0 0 0 0 0 0 0 0 0 0 0 0 0 0 0 0 0 0 127 0"/><feOffset dy=".188"/><feGaussianBlur stdDeviation=".094"/><feComposite in2="hardAlpha" k2="-1" k3="1" operator="arithmetic"/><feColorMatrix values="0 0 0 0 1 0 0 0 0 1 0 0 0 0 1 0 0 0 0.8 0"/><feBlend in2="effect1_innerShadow_577_8541" result="effect2_innerShadow_577_8541"/></filter></defs></svg>