<svg xmlns="http://www.w3.org/2000/svg" width="48" height="48" fill="none"><g filter="url(#a)"><rect width="48" height="48" fill="url(#b)" rx="10.313"/><rect width="48" height="48" fill="url(#c)" fill-opacity=".1" rx="10.313" style="mix-blend-mode:soft-light"/></g><g filter="url(#d)"><g filter="url(#e)"><path fill="#fff" d="M24 38.344c10.2 0 18.469-6.926 18.469-15.469S34.2 7.406 24 7.406c-10.2 0-18.469 6.926-18.469 15.469 0 5.342 3.234 10.052 8.15 12.831l.007.013c.562.406 1.2 1.687-.75 3.562-2.438 2.344 1.874.938 3.187.14.34-.206.653-.413.944-.606.831-.55 1.444-.987 2.103-.987.015 0 .083.004.105.008l.041.007c1.496.327 3.064.5 4.682.5z"/></g><mask id="f" width="38" height="34" x="5" y="7" maskUnits="userSpaceOnUse" style="mask-type:alpha"><path fill="#fff" d="M24 38.344c10.2 0 18.469-6.926 18.469-15.469S34.2 7.406 24 7.406c-10.2 0-18.469 6.926-18.469 15.469 0 5.342 3.234 10.052 8.15 12.831l.007.013c.562.406 1.2 1.687-.75 3.562-2.438 2.344 1.874.938 3.187.14.34-.206.653-.413.944-.606.831-.55 1.444-.987 2.103-.987.015 0 .083.004.105.008l.041.007c1.496.327 3.064.5 4.682.5z"/></mask><g mask="url(#f)"><g filter="url(#g)"><path fill="#fff" d="M12.796 39.703c2.137-2.063 1.671-3.36 1.171-3.75.75-.675 1.47-.282 1.735 0-.11.86-.703 2.822-2.203 3.797-1.5.975-1.094.375-.704-.047z"/></g><g filter="url(#h)"><path fill="url(#i)" fill-opacity=".08" d="M13.734 39.469c1.05-.6 1.922-2.235 1.922-3.094l1.219.516c-.225 1.387-2.25 2.25-3.14 2.578z"/></g></g></g><defs><filter id="a" width="48.75" height="48.75" x="-.375" y="-.375" color-interpolation-filters="sRGB" filterUnits="userSpaceOnUse"><feFlood flood-opacity="0" result="BackgroundImageFix"/><feBlend in="SourceGraphic" in2="BackgroundImageFix" result="shape"/><feColorMatrix in="SourceAlpha" result="hardAlpha" values="0 0 0 0 0 0 0 0 0 0 0 0 0 0 0 0 0 0 127 0"/><feOffset dx=".375" dy=".375"/><feGaussianBlur stdDeviation=".188"/><feComposite in2="hardAlpha" k2="-1" k3="1" operator="arithmetic"/><feColorMatrix values="0 0 0 0 1 0 0 0 0 1 0 0 0 0 1 0 0 0 0.2 0"/><feBlend in2="shape" result="effect1_innerShadow_577_8509"/><feColorMatrix in="SourceAlpha" result="hardAlpha" values="0 0 0 0 0 0 0 0 0 0 0 0 0 0 0 0 0 0 127 0"/><feOffset dx="-.375" dy="-.375"/><feGaussianBlur stdDeviation=".188"/><feComposite in2="hardAlpha" k2="-1" k3="1" operator="arithmetic"/><feColorMatrix values="0 0 0 0 0 0 0 0 0 0 0 0 0 0 0 0 0 0 0.05 0"/><feBlend in2="effect1_innerShadow_577_8509" result="effect2_innerShadow_577_8509"/></filter><filter id="d" width="45.188" height="41.418" x="1.406" y="6.469" color-interpolation-filters="sRGB" filterUnits="userSpaceOnUse"><feFlood flood-opacity="0" result="BackgroundImageFix"/><feColorMatrix in="SourceAlpha" result="hardAlpha" values="0 0 0 0 0 0 0 0 0 0 0 0 0 0 0 0 0 0 127 0"/><feOffset dy=".938"/><feGaussianBlur stdDeviation=".75"/><feColorMatrix values="0 0 0 0 0 0 0 0 0 0 0 0 0 0 0 0 0 0 0.2 0"/><feBlend in2="BackgroundImageFix" result="effect1_dropShadow_577_8509"/><feColorMatrix in="SourceAlpha" result="hardAlpha" values="0 0 0 0 0 0 0 0 0 0 0 0 0 0 0 0 0 0 127 0"/><feOffset dy="3.188"/><feGaussianBlur stdDeviation="2.063"/><feColorMatrix values="0 0 0 0 0 0 0 0 0 0 0 0 0 0 0 0 0 0 0.2 0"/><feBlend in2="effect1_dropShadow_577_8509" result="effect2_dropShadow_577_8509"/><feBlend in="SourceGraphic" in2="effect2_dropShadow_577_8509" result="shape"/></filter><filter id="e" width="40.688" height="38.418" x="2.719" y="2.156" color-interpolation-filters="sRGB" filterUnits="userSpaceOnUse"><feFlood flood-opacity="0" result="BackgroundImageFix"/><feBlend in="SourceGraphic" in2="BackgroundImageFix" result="shape"/><feColorMatrix in="SourceAlpha" result="hardAlpha" values="0 0 0 0 0 0 0 0 0 0 0 0 0 0 0 0 0 0 127 0"/><feOffset dx="-2.813" dy="-5.25"/><feGaussianBlur stdDeviation="4.219"/><feComposite in2="hardAlpha" k2="-1" k3="1" operator="arithmetic"/><feColorMatrix values="0 0 0 0 0.058087 0 0 0 0 0.191667 0 0 0 0 0.0399306 0 0 0 0.25 0"/><feBlend in2="shape" result="effect1_innerShadow_577_8509"/><feColorMatrix in="SourceAlpha" result="hardAlpha" values="0 0 0 0 0 0 0 0 0 0 0 0 0 0 0 0 0 0 127 0"/><feOffset dx="1.313" dy="-1.313"/><feGaussianBlur stdDeviation=".469"/><feComposite in2="hardAlpha" k2="-1" k3="1" operator="arithmetic"/><feColorMatrix values="0 0 0 0 1 0 0 0 0 1 0 0 0 0 1 0 0 0 0.45 0"/><feBlend in2="effect1_innerShadow_577_8509" result="effect2_innerShadow_577_8509"/><feColorMatrix in="SourceAlpha" result="hardAlpha" values="0 0 0 0 0 0 0 0 0 0 0 0 0 0 0 0 0 0 127 0"/><feOffset dx="-.938" dy="-3.375"/><feGaussianBlur stdDeviation="2.344"/><feComposite in2="hardAlpha" k2="-1" k3="1" operator="arithmetic"/><feColorMatrix values="0 0 0 0 0.81 0 0 0 0 1 0 0 0 0 0.8 0 0 0 1 0"/><feBlend in2="effect2_innerShadow_577_8509" result="effect3_innerShadow_577_8509"/></filter><filter id="g" width="5.145" height="6.57" x="11.496" y="34.643" color-interpolation-filters="sRGB" filterUnits="userSpaceOnUse"><feFlood flood-opacity="0" result="BackgroundImageFix"/><feBlend in="SourceGraphic" in2="BackgroundImageFix" result="shape"/><feGaussianBlur result="effect1_foregroundBlur_577_8509" stdDeviation=".469"/></filter><filter id="h" width="5.016" height="4.969" x="12.797" y="35.438" color-interpolation-filters="sRGB" filterUnits="userSpaceOnUse"><feFlood flood-opacity="0" result="BackgroundImageFix"/><feBlend in="SourceGraphic" in2="BackgroundImageFix" result="shape"/><feGaussianBlur result="effect1_foregroundBlur_577_8509" stdDeviation=".469"/></filter><linearGradient id="b" x1="24" x2="24" y1="0" y2="48" gradientUnits="userSpaceOnUse"><stop stop-color="#83F180"/><stop offset="1" stop-color="#5BC34E"/></linearGradient><linearGradient id="c" x1="24" x2="24" y1="0" y2="48" gradientUnits="userSpaceOnUse"><stop offset=".151" stop-color="#fff"/><stop offset="1" stop-opacity=".1"/></linearGradient><linearGradient id="i" x1="16.031" x2="14.063" y1="36.375" y2="39.469" gradientUnits="userSpaceOnUse"><stop/><stop offset="1"/></linearGradient></defs></svg>