<svg xmlns="http://www.w3.org/2000/svg" width="96" height="96" fill="none"><path fill="#fff" d="M0 0h96v96H0z"/><path fill="#F9AB00" d="M65 61.495c.013 2.472-2.01 4.484-4.516 4.498a4.406 4.406 0 0 1-.56-.031c-2.325-.34-4.03-2.335-3.972-4.65V34.68c-.056-2.32 1.653-4.314 3.98-4.65 2.49-.287 4.746 1.469 5.038 3.923.02.18.031.361.03.543v26.998z"/><path fill="#E37400" d="M36.525 57.082c2.5 0 4.525 1.996 4.525 4.459 0 2.463-2.026 4.459-4.525 4.459-2.5 0-4.525-1.996-4.525-4.46 0-2.462 2.026-4.458 4.525-4.458zM48.43 43.568c-2.511.136-4.459 2.211-4.4 4.689v11.976c0 3.25 1.452 5.224 3.578 5.644 2.454.49 4.845-1.072 5.343-3.49a4.39 4.39 0 0 0 .09-.9V48.05c.004-2.471-2.025-4.478-4.533-4.482l-.078.001z"/></svg>