<svg xmlns="http://www.w3.org/2000/svg" width="96" height="32" fill="none"><path fill="url(#a)" d="M31.648 9.957a3.166 3.166 0 0 0-3.164-3.168H9.947a3.166 3.166 0 0 0-3.165 3.168v18.555a3.166 3.166 0 0 0 3.165 3.168h18.537a3.166 3.166 0 0 0 3.164-3.168V9.957z"/><path fill="#D7D9FF" d="M24.867 3.168A3.166 3.166 0 0 0 21.702 0H3.165A3.166 3.166 0 0 0 0 3.168v18.555a3.166 3.166 0 0 0 3.165 3.168h18.537a3.166 3.166 0 0 0 3.165-3.168V3.168z"/><path fill="#ffffff" d="M47.503 21.95h8.938v3.394H43.78V6.336h3.722V21.95zm10.692-1.078-.172-8.2h3.289l.147 7.926c.025.97.59 1.764 1.694 1.764 1.374 0 2.65-1.317 2.65-1.888v-7.802h3.29v12.424h-2.848l-.196-.92s-1.252 1.168-3.215 1.168c-2.406 0-4.59-1.64-4.64-4.473zm15.588-2.852c0 1.444 1.103 2.458 2.382 2.458 1.379 0 2.431-1.014 2.431-2.459 0-1.47-1.052-2.534-2.431-2.534-1.279 0-2.382 1.065-2.382 2.535zm3.084 5.195v.507c3.584.05 6.467 3.066 6.467 6.564 0 .659-.125 1.394-.125 1.394h-3.334s.1-.71.1-1.318c0-1.825-1.554-3.675-3.56-3.675-.927 0-2.28.634-2.958 1.394l-1.955-2.306c.627-.684 1.63-1.42 2.332-1.673v-1.166c-1.755-.71-3.159-2.686-3.159-4.866 0-3.117 2.356-5.398 5.615-5.398h6.718v2.788l-2.105-.076c.35.456.752 1.343.752 2.686 0 2.636-2.006 5.094-4.788 5.145zm12.828-10.543c3.904 0 6.306 2.843 6.306 6.422 0 3.407-2.402 6.25-6.306 6.25-3.928 0-6.353-2.843-6.353-6.25 0-3.579 2.425-6.422 6.353-6.422zm0 9.853c1.94 0 3.21-1.397 3.21-3.431 0-2.06-1.27-3.579-3.21-3.579-1.987 0-3.235 1.52-3.235 3.579 0 2.034 1.248 3.431 3.235 3.431z"/><path fill="#D7D9FF" d="M43.781 28.512H69.1v3.168H43.781z"/><defs><linearGradient id="a" x1="0" x2="31.68" y1="0" y2="31.648" gradientUnits="userSpaceOnUse"><stop stop-color="#6B73FF"/><stop offset="1" stop-color="#000DFF"/></linearGradient></defs></svg>