<svg xmlns="http://www.w3.org/2000/svg" width="96" height="96" fill="none"><path fill="#fff" d="M0 0h96v96H0z"/><path fill="url(#a)" d="M39.975 44.668a1.153 1.153 0 0 0-1.612-.217 1.194 1.194 0 0 0-.337.42L28.125 64.68a1.184 1.184 0 0 0 1.058 1.713h13.795a1.137 1.137 0 0 0 1.058-.654c2.977-6.15 1.173-15.5-4.06-21.07z"/><path fill="#2684FF" d="M47.253 26.643a26.131 26.131 0 0 0-1.526 25.793l6.65 13.301a1.184 1.184 0 0 0 1.06.655h13.791a1.18 1.18 0 0 0 1.184-1.184 1.2 1.2 0 0 0-.123-.529L49.267 26.637a1.114 1.114 0 0 0-2.014 0v.006z"/><defs><linearGradient id="a" x1="45.426" x2="34.971" y1="47.696" y2="65.805" gradientUnits="userSpaceOnUse"><stop stop-color="#0052CC"/><stop offset=".92" stop-color="#2684FF"/></linearGradient></defs></svg>