<?xml version="1.0" encoding="UTF-8" standalone="no"?>
<!DOCTYPE svg PUBLIC "-//W3C//DTD SVG 1.1//EN" "http://www.w3.org/Graphics/SVG/1.1/DTD/svg11.dtd">
<svg xmlns="http://www.w3.org/2000/svg" version="1.1" viewBox="0.00 0.00 590.00 582.00">
<path fill="#cacaca" d="
  M 271.09 28.46
  A 0.44 0.44 0.0 0 1 271.50 27.98
  Q 301.10 25.59 330.54 29.49
  A 0.54 0.54 0.0 0 1 331.01 30.10
  L 330.35 34.94
  Q 330.27 35.54 329.67 35.46
  Q 300.98 31.61 272.12 33.96
  A 0.56 0.56 0.0 0 1 271.51 33.44
  L 271.09 28.46
  Z"
/>
<path fill="#cacaca" d="
  M 241.81 38.15
  C 222.83 41.99 204.59 47.77 186.88 55.40
  Q 186.43 55.59 186.23 55.14
  L 184.23 50.62
  Q 184.00 50.11 184.52 49.89
  Q 211.55 38.16 240.44 32.26
  Q 241.33 32.08 241.48 32.98
  L 242.26 37.49
  A 0.57 0.57 0.0 0 1 241.81 38.15
  Z"
/>
<path fill="#cacaca" d="
  M 414.55 60.86
  A 0.82 0.81 27.0 0 1 413.46 61.21
  Q 387.62 48.36 359.65 41.18
  A 0.45 0.45 0.0 0 1 359.32 40.65
  L 360.37 35.78
  Q 360.49 35.21 361.06 35.35
  Q 389.78 42.72 416.31 55.91
  A 0.69 0.69 0.0 0 1 416.61 56.85
  L 414.55 60.86
  Z"
/>
<path fill="#cacaca" d="
  M 325.51 64.20
  A 0.76 0.76 0.0 0 1 324.66 64.80
  Q 299.61 61.44 274.42 63.47
  Q 273.87 63.52 273.79 62.97
  L 273.27 59.05
  Q 273.18 58.41 273.83 58.39
  C 291.29 57.70 308.49 57.78 325.85 59.78
  Q 326.39 59.85 326.28 60.38
  L 325.51 64.20
  Z"
/>
<path fill="#cacaca" d="
  M 198.93 82.36
  A 0.79 0.78 -23.3 0 1 197.89 81.95
  L 196.49 78.71
  A 0.71 0.71 0.0 0 1 196.86 77.78
  Q 220.61 67.46 246.03 62.37
  A 0.59 0.58 -11.5 0 1 246.72 62.82
  L 247.57 66.56
  Q 247.70 67.16 247.10 67.28
  Q 222.22 72.27 198.93 82.36
  Z"
/>
<path fill="#cacaca" d="
  M 112.77 103.50
  L 109.24 99.83
  Q 108.85 99.43 109.27 99.05
  Q 131.13 79.04 156.69 64.04
  A 0.61 0.61 0.0 0 1 157.53 64.26
  L 159.87 68.37
  A 0.71 0.70 -30.4 0 1 159.61 69.33
  Q 134.64 83.97 113.29 103.51
  A 0.37 0.37 0.0 0 1 112.77 103.50
  Z"
/>
<path fill="#cacaca" d="
  M 352.28 65.92
  A 0.95 0.94 -77.7 0 1 353.45 65.16
  Q 378.55 71.71 401.79 83.21
  Q 402.27 83.45 402.03 83.94
  L 400.21 87.52
  A 0.51 0.51 0.0 0 1 399.52 87.75
  Q 376.70 76.34 352.00 70.01
  A 0.47 0.46 -78.7 0 1 351.65 69.48
  L 352.28 65.92
  Z"
/>
<path fill="#cacaca" d="
  M 484.73 113.16
  C 470.27 99.72 456.64 87.54 440.13 76.54
  Q 439.68 76.24 439.97 75.79
  L 442.57 71.73
  Q 442.93 71.17 443.48 71.54
  Q 468.10 87.90 488.93 108.88
  Q 489.33 109.29 488.93 109.70
  L 485.48 113.15
  Q 485.11 113.52 484.73 113.16
  Z"
/>
<path fill="#cacaca" d="
  M 130.37 122.64
  Q 130.00 122.49 129.82 122.17
  A 0.71 0.70 54.6 0 1 129.96 121.31
  Q 149.23 103.81 171.64 90.54
  Q 172.12 90.26 172.41 90.74
  L 174.47 94.15
  A 0.54 0.54 0.0 0 1 174.28 94.90
  Q 152.27 107.84 133.42 125.05
  A 0.50 0.50 0.0 0 1 132.72 125.01
  L 130.93 123.03
  Q 130.69 122.77 130.37 122.64
  Z"
/>
<path fill="#cacaca" d="
  M 424.92 97.74
  Q 425.47 96.84 426.35 97.42
  Q 447.97 111.74 466.13 130.24
  Q 466.49 130.60 466.11 130.95
  L 463.24 133.56
  Q 462.79 133.97 462.36 133.53
  Q 444.53 115.48 423.35 101.51
  Q 422.83 101.16 423.16 100.63
  L 424.92 97.74
  Z"
/>
<path fill="#cacaca" d="
  M 320.06 104.61
  Q 319.95 105.26 319.29 105.18
  Q 298.59 102.74 277.76 104.18
  Q 277.21 104.21 277.15 103.67
  L 276.80 100.72
  A 0.72 0.72 0.0 0 1 277.46 99.92
  Q 298.82 98.17 320.06 101.12
  A 0.56 0.55 -81.9 0 1 320.53 101.76
  L 320.06 104.61
  Z"
/>
<path fill="#cacaca" d="
  M 214.45 119.62
  L 213.23 116.94
  A 0.68 0.68 0.0 0 1 213.58 116.04
  Q 233.13 107.65 253.97 103.30
  Q 254.58 103.17 254.76 103.77
  L 255.61 106.63
  Q 255.78 107.19 255.20 107.31
  Q 234.52 111.50 215.15 119.89
  Q 214.67 120.10 214.45 119.62
  Z"
/>
<path fill="#cacaca" d="
  M 342.02 106.54
  A 1.33 1.33 0.0 0 1 343.62 105.70
  Q 364.03 111.16 382.99 120.52
  A 0.58 0.58 0.0 0 1 383.24 121.33
  L 381.78 123.93
  A 0.65 0.65 0.0 0 1 380.92 124.20
  Q 362.97 115.16 343.56 110.05
  C 341.40 109.48 341.34 108.44 342.02 106.54
  Z"
/>
<path fill="#cacaca" d="
  M 91.87 124.26
  Q 92.38 124.48 92.19 125.20
  A 0.85 0.82 -17.3 0 1 92.03 125.49
  Q 73.21 147.25 59.45 172.52
  A 0.73 0.73 0.0 0 1 58.47 172.82
  L 54.40 170.71
  Q 53.74 170.37 54.09 169.72
  Q 68.21 143.92 87.40 121.63
  A 0.89 0.88 42.7 0 1 88.70 121.58
  Q 90.08 122.96 91.62 124.12
  Q 91.74 124.21 91.87 124.26
  Z"
/>
<path fill="#cacaca" d="
  M 159.83 154.95
  L 158.16 152.66
  A 0.38 0.37 -39.1 0 1 158.22 152.16
  Q 174.09 137.71 192.55 126.73
  Q 193.02 126.46 193.30 126.91
  L 194.91 129.46
  Q 195.26 130.02 194.69 130.35
  Q 176.66 140.98 161.21 155.09
  A 0.93 0.93 0.0 0 1 159.83 154.95
  Z"
/>
<path fill="#cacaca" d="
  M 400.72 135.08
  Q 401.26 133.40 402.78 132.50
  Q 403.27 132.22 403.73 132.53
  Q 421.16 144.29 436.03 159.15
  Q 436.41 159.53 436.20 160.04
  Q 435.52 161.64 433.84 162.24
  Q 433.29 162.43 432.88 162.01
  Q 418.36 147.19 401.00 135.84
  A 0.68 0.66 25.4 0 1 400.72 135.08
  Z"
/>
<path fill="#cacaca" d="
  M 535.51 185.42
  A 0.32 0.32 0.0 0 1 535.09 185.27
  Q 522.51 159.18 504.82 136.26
  A 0.72 0.72 0.0 0 1 504.94 135.26
  L 508.36 132.54
  Q 509.09 131.96 509.66 132.70
  Q 527.69 156.07 540.51 182.66
  A 0.49 0.49 0.0 0 1 540.27 183.32
  L 535.51 185.42
  Z"
/>
<path fill="#cacaca" d="
  M 314.50 145.04
  Q 314.40 145.59 313.84 145.52
  Q 297.53 143.37 281.10 144.66
  A 0.49 0.49 0.0 0 1 280.57 144.23
  L 280.27 142.05
  Q 280.18 141.43 280.80 141.39
  Q 297.64 140.30 314.41 142.18
  Q 315.04 142.26 314.92 142.88
  L 314.50 145.04
  Z"
/>
<path fill="#cacaca" d="
  M 113.68 143.39
  Q 114.09 143.58 114.30 143.96
  Q 114.57 144.42 114.22 144.82
  Q 97.66 164.14 85.44 186.46
  A 0.61 0.61 0.0 0 1 84.61 186.69
  L 81.08 184.67
  Q 80.71 184.46 80.92 184.09
  Q 92.32 163.37 108.03 144.30
  Q 109.43 142.61 110.46 141.67
  A 0.78 0.78 0.0 0 1 111.37 141.57
  Q 112.31 142.11 113.04 142.91
  A 1.92 1.88 81.2 0 0 113.68 143.39
  Z"
/>
<path fill="#cacaca" d="
  M 230.75 156.71
  L 229.88 154.70
  Q 229.67 154.21 230.16 154.00
  Q 245.60 147.34 262.10 143.97
  A 0.67 0.66 77.9 0 1 262.89 144.49
  L 263.33 146.51
  A 0.58 0.58 0.0 0 1 262.88 147.20
  Q 246.69 150.45 231.56 157.03
  Q 230.99 157.28 230.75 156.71
  Z"
/>
<path fill="#cacaca" d="
  M 332.01 146.58
  A 1.00 0.99 -74.5 0 1 333.22 145.89
  Q 349.39 150.14 364.37 157.54
  A 0.55 0.55 0.0 0 1 364.62 158.27
  L 363.67 160.17
  Q 363.38 160.76 362.79 160.47
  Q 348.58 153.41 333.29 149.34
  C 331.34 148.83 331.55 148.25 332.01 146.58
  Z"
/>
<path fill="#cacaca" d="
  M 511.55 195.90
  L 507.90 197.77
  Q 507.48 197.99 507.27 197.56
  Q 496.11 174.52 480.47 154.24
  A 0.56 0.55 53.3 0 1 480.58 153.46
  L 483.73 151.16
  A 0.61 0.60 52.5 0 1 484.57 151.28
  Q 500.44 171.87 511.76 195.28
  A 0.47 0.47 0.0 0 1 511.55 195.90
  Z"
/>
<path fill="#cacaca" d="
  M 188.04 185.02
  L 186.36 183.42
  Q 185.87 182.96 186.37 182.51
  Q 198.83 171.15 213.34 162.57
  Q 213.85 162.28 214.16 162.77
  L 215.29 164.53
  Q 215.65 165.08 215.08 165.41
  Q 200.76 173.79 188.56 185.03
  A 0.38 0.38 0.0 0 1 188.04 185.02
  Z"
/>
<path fill="#cacaca" d="
  M 379.99 166.96
  Q 380.23 166.64 380.57 166.86
  Q 394.68 176.26 406.62 188.30
  Q 406.97 188.66 406.62 189.01
  L 405.00 190.63
  A 0.54 0.53 45.4 0 1 404.24 190.62
  Q 392.62 178.86 378.84 169.72
  Q 378.26 169.34 378.67 168.77
  L 379.99 166.96
  Z"
/>
<path fill="#cacaca" d="
  M 143.25 169.20
  L 145.00 170.84
  Q 145.44 171.26 145.05 171.71
  Q 131.59 187.49 121.64 205.68
  Q 121.35 206.21 120.75 206.14
  Q 119.08 205.92 117.83 204.72
  Q 117.51 204.41 117.73 204.03
  Q 127.96 185.46 141.68 169.29
  Q 142.42 168.42 143.25 169.20
  Z"
/>
<path fill="#cacaca" d="
  M 448.32 179.17
  C 449.63 176.90 451.21 176.34 452.94 178.68
  Q 464.99 194.95 473.96 213.11
  Q 474.21 213.61 473.82 214.01
  Q 472.58 215.28 470.80 215.24
  A 0.88 0.87 78.0 0 1 470.05 214.75
  Q 461.01 196.10 448.36 179.67
  A 0.45 0.44 41.0 0 1 448.32 179.17
  Z"
/>
<path fill="#cacaca" d="
  M 309.80 180.30
  A 0.65 0.64 -81.5 0 1 309.09 180.83
  Q 296.69 179.45 284.22 180.24
  Q 283.68 180.27 283.55 179.75
  L 283.25 178.52
  Q 283.08 177.85 283.77 177.79
  Q 296.67 176.65 309.52 178.41
  Q 310.10 178.49 310.00 179.07
  L 309.80 180.30
  Z"
/>
<path fill="#cacaca" d="
  M 245.82 189.76
  A 0.54 0.54 0.0 0 1 245.11 189.49
  L 244.49 188.16
  Q 244.26 187.67 244.76 187.46
  Q 256.62 182.33 269.29 179.74
  A 0.56 0.55 77.0 0 1 269.94 180.15
  L 270.25 181.48
  Q 270.39 182.11 269.76 182.24
  Q 257.39 184.75 245.82 189.76
  Z"
/>
<path fill="#cacaca" d="
  M 322.75 182.81
  L 323.28 181.54
  A 0.65 0.64 -70.9 0 1 324.03 181.17
  Q 336.22 184.39 347.54 189.92
  A 0.99 0.98 -74.3 0 1 348.09 190.91
  C 347.94 192.29 347.04 192.52 345.89 191.96
  Q 334.90 186.61 323.14 183.61
  A 0.59 0.58 -71.2 0 1 322.75 182.81
  Z"
/>
<path fill="#cacaca" d="
  M 212.05 211.15
  L 211.06 210.16
  Q 210.63 209.73 211.08 209.32
  Q 220.60 200.67 231.65 194.11
  A 0.62 0.61 -31.7 0 1 232.49 194.30
  L 233.26 195.50
  Q 233.56 195.98 233.07 196.27
  Q 222.17 202.63 212.87 211.17
  A 0.60 0.59 -43.6 0 1 212.05 211.15
  Z"
/>
<path fill="#cacaca" d="
  M 174.18 195.99
  L 175.75 197.32
  Q 176.20 197.70 175.81 198.15
  Q 164.98 210.71 157.04 225.28
  Q 156.80 225.71 156.39 225.46
  L 154.38 224.26
  Q 153.93 223.99 154.18 223.53
  Q 162.29 208.82 173.22 196.06
  A 0.68 0.67 40.6 0 1 174.18 195.99
  Z"
/>
<path fill="#cacaca" d="
  M 359.03 198.96
  C 359.56 197.60 360.21 197.11 361.54 198.02
  Q 371.72 204.98 380.50 213.70
  Q 380.95 214.14 380.50 214.57
  L 379.57 215.46
  A 0.70 0.69 45.9 0 1 378.60 215.44
  Q 369.71 206.50 359.22 199.54
  A 0.49 0.48 -63.5 0 1 359.03 198.96
  Z"
/>
<path fill="#cacaca" d="
  M 24.81 254.76
  C 27.85 235.90 33.55 215.83 40.70 198.13
  Q 40.92 197.60 41.45 197.80
  L 46.01 199.51
  A 0.58 0.57 21.5 0 1 46.34 200.26
  Q 35.55 227.15 30.75 255.75
  A 0.62 0.62 0.0 0 1 30.03 256.26
  L 25.25 255.38
  A 0.55 0.55 0.0 0 1 24.81 254.76
  Z"
/>
<path fill="#cacaca" d="
  M 416.33 203.65
  L 418.05 202.28
  A 0.63 0.63 0.0 0 1 418.93 202.38
  Q 429.19 215.71 436.54 230.84
  A 0.64 0.63 62.6 0 1 436.28 231.68
  L 434.37 232.72
  Q 433.89 232.98 433.65 232.48
  Q 426.40 217.49 416.25 204.30
  Q 415.97 203.94 416.33 203.65
  Z"
/>
<path fill="#cacaca" d="
  M 73.44 210.57
  A 0.56 0.56 0.0 0 1 73.74 211.29
  Q 64.19 234.93 60.05 260.13
  Q 59.95 260.74 59.34 260.61
  L 55.58 259.83
  A 0.64 0.63 -79.7 0 1 55.08 259.10
  Q 59.38 233.72 68.86 209.79
  A 1.07 1.07 0.0 0 1 70.28 209.20
  L 73.44 210.57
  Z"
/>
<path fill="#cacaca" d="
  M 551.67 211.06
  Q 552.03 210.94 552.15 211.29
  Q 561.80 239.39 565.14 268.91
  Q 565.20 269.42 564.69 269.48
  L 559.86 270.06
  Q 559.23 270.14 559.16 269.50
  Q 555.90 240.71 546.50 213.31
  Q 546.35 212.84 546.81 212.69
  L 551.67 211.06
  Z"
/>
<rect fill="#cacaca" x="-9.43" y="-0.90" transform="translate(295.77,212.97) rotate(1.3)" width="18.86" height="1.80" rx="0.53"/>
<rect fill="#cacaca" x="-9.50" y="-0.93" transform="translate(267.54,216.86) rotate(-17.4)" width="19.00" height="1.86" rx="0.59"/>
<path fill="#cacaca" d="
  M 332.65 221.99
  A 0.76 0.76 0.0 0 1 331.57 222.52
  Q 323.67 218.64 315.15 216.41
  A 0.55 0.54 8.1 0 1 314.74 215.87
  L 314.78 214.89
  A 0.37 0.36 8.2 0 1 315.24 214.55
  C 317.65 215.17 333.10 219.67 332.65 221.99
  Z"
/>
<path fill="#cacaca" d="
  M 187.66 242.33
  C 186.50 241.80 185.85 241.59 186.66 240.16
  Q 192.49 229.88 200.05 220.78
  C 200.98 219.66 202.04 219.19 202.82 220.77
  Q 203.04 221.22 202.71 221.60
  Q 194.60 231.09 188.58 242.03
  A 0.71 0.71 0.0 0 1 187.66 242.33
  Z"
/>
<path fill="#cacaca" d="
  M 533.15 272.32
  L 529.42 272.82
  A 0.71 0.70 -6.9 0 1 528.63 272.21
  Q 525.82 247.01 517.59 223.05
  A 0.72 0.72 0.0 0 1 518.03 222.14
  L 521.55 220.86
  A 0.58 0.57 -18.4 0 1 522.29 221.22
  Q 530.68 245.81 533.70 271.62
  Q 533.77 272.24 533.15 272.32
  Z"
/>
<path fill="#cacaca" d="
  M 235.09 236.07
  C 231.20 234.81 248.25 224.40 249.36 223.77
  Q 249.54 223.67 249.69 223.82
  C 250.58 224.73 250.33 225.31 249.32 225.90
  Q 242.08 230.20 235.89 235.89
  A 0.83 0.82 -57.5 0 1 235.09 236.07
  Z"
/>
<path fill="#cacaca" d="
  M 390.20 224.85
  Q 397.96 234.98 403.60 246.43
  Q 403.90 247.04 403.30 247.35
  L 402.08 247.96
  A 0.52 0.52 0.0 0 1 401.37 247.73
  Q 395.84 236.42 388.19 226.43
  A 0.63 0.62 -40.7 0 1 388.26 225.60
  L 389.15 224.77
  Q 389.72 224.23 390.20 224.85
  Z"
/>
<path fill="#cacaca" d="
  M 111.13 226.06
  Q 111.83 226.34 111.55 227.04
  Q 103.98 246.01 100.48 266.16
  A 1.84 1.84 0.0 0 1 98.17 267.62
  C 95.56 266.88 96.19 266.22 96.63 263.87
  Q 100.26 244.05 107.75 225.33
  A 0.57 0.57 0.0 0 1 108.50 225.01
  L 111.13 226.06
  Z"
/>
<path fill="#cacaca" d="
  M 356.19 237.74
  A 0.38 0.38 0.0 0 1 356.25 238.27
  L 355.94 238.65
  A 1.08 0.30 -50.5 0 1 355.02 239.29
  L 340.68 227.47
  A 1.08 0.30 -50.5 0 1 341.14 226.45
  L 341.45 226.07
  A 0.38 0.38 0.0 0 1 341.98 226.02
  L 356.19 237.74
  Z"
/>
<path fill="#cacaca" d="
  M 489.14 277.90
  A 0.86 0.85 -8.9 0 1 488.13 277.17
  Q 485.62 256.41 478.96 236.60
  A 0.55 0.55 0.0 0 1 479.26 235.92
  L 481.91 234.76
  Q 482.69 234.42 482.95 235.22
  Q 489.71 255.49 492.27 276.70
  A 0.65 0.64 81.4 0 1 491.75 277.41
  L 489.14 277.90
  Z"
/>
<path fill="#cacaca" d="
  M 148.82 240.93
  A 0.71 0.71 0.0 0 1 149.25 241.86
  Q 143.14 257.14 140.40 273.36
  Q 140.31 273.89 139.78 273.82
  L 137.64 273.52
  Q 137.00 273.43 137.11 272.80
  Q 139.96 256.19 146.20 240.55
  A 0.54 0.54 0.0 0 1 146.88 240.24
  L 148.82 240.93
  Z"
/>
<path fill="#cacaca" d="
  M 217.38 258.46
  L 216.84 258.13
  Q 216.34 257.82 216.62 257.31
  Q 220.99 249.39 226.84 242.51
  A 0.68 0.68 0.0 0 1 227.84 242.47
  L 228.29 242.92
  Q 228.65 243.28 228.32 243.66
  Q 222.48 250.39 218.24 258.22
  A 0.62 0.61 29.1 0 1 217.38 258.46
  Z"
/>
<rect fill="#cacaca" x="-0.93" y="-9.54" transform="translate(367.20,254.02) rotate(-31.8)" width="1.86" height="19.08" rx="0.71"/>
<path fill="#cacaca" d="
  M 448.85 281.99
  Q 448.58 282.05 448.29 282.03
  Q 447.80 282.00 447.74 281.51
  Q 445.88 265.08 440.53 249.44
  Q 440.34 248.88 440.90 248.69
  L 442.91 247.98
  Q 443.52 247.76 443.72 248.38
  Q 449.00 264.26 451.06 280.85
  Q 451.12 281.35 450.67 281.55
  Q 450.22 281.75 449.81 281.80
  A 1.69 0.09 -14.2 0 0 448.85 281.99
  Z"
/>
<path fill="#cacaca" d="
  M 180.92 254.01
  L 182.06 254.43
  Q 182.63 254.64 182.40 255.20
  Q 177.67 266.91 175.62 279.37
  Q 175.54 279.84 175.07 279.79
  L 173.64 279.62
  Q 172.98 279.54 173.09 278.88
  Q 175.23 266.30 179.92 254.45
  A 0.79 0.78 -68.5 0 1 180.92 254.01
  Z"
/>
<path fill="#cacaca" d="
  M 409.22 260.27
  Q 413.28 272.37 414.82 285.05
  Q 414.89 285.68 414.27 285.80
  L 412.94 286.04
  A 0.52 0.51 -8.4 0 1 412.33 285.60
  Q 410.82 273.08 406.79 261.15
  Q 406.62 260.65 407.10 260.41
  L 408.20 259.85
  Q 408.95 259.48 409.22 260.27
  Z"
/>
<path fill="#cacaca" d="
  M 213.35 267.08
  A 0.30 0.30 0.0 0 1 213.55 267.44
  L 208.81 284.44
  A 1.03 0.78 -74.4 0 1 207.78 285.23
  L 207.38 285.11
  A 1.03 0.78 -74.4 0 1 206.90 283.91
  L 211.65 266.91
  A 0.30 0.30 0.0 0 1 212.02 266.70
  L 213.35 267.08
  Z"
/>
<path fill="#cacaca" d="
  M 375.71 271.12
  Q 376.49 270.96 376.74 271.72
  Q 379.50 280.25 380.58 289.16
  Q 380.64 289.69 380.11 289.72
  L 379.31 289.76
  Q 378.84 289.78 378.78 289.32
  Q 377.66 280.44 374.83 271.96
  Q 374.62 271.35 375.25 271.22
  L 375.71 271.12
  Z"
/>
<path fill="#cacaca" d="
  M 27.25 285.63
  A 0.19 0.19 0.0 0 1 27.42 285.83
  Q 25.96 314.77 30.56 343.38
  Q 30.68 344.13 29.93 344.26
  L 25.39 345.07
  Q 24.75 345.18 24.65 344.54
  Q 19.99 315.35 21.38 285.82
  Q 21.41 285.14 22.09 285.19
  L 27.25 285.63
  Z"
/>
<path fill="#cacaca" d="
  M 56.32 286.85
  A 0.63 0.62 -86.7 0 1 56.90 287.51
  Q 55.91 312.84 59.80 337.88
  Q 59.88 338.35 59.42 338.45
  L 55.66 339.35
  A 0.73 0.73 0.0 0 1 54.77 338.75
  Q 50.91 313.03 52.29 287.03
  Q 52.31 286.56 52.78 286.59
  L 56.32 286.85
  Z"
/>
<path fill="#cacaca" d="
  M 96.57 333.27
  A 0.39 0.39 0.0 0 1 96.07 332.97
  Q 92.43 311.49 93.53 289.74
  A 0.50 0.50 0.0 0 1 94.07 289.27
  L 97.29 289.58
  Q 97.94 289.64 97.91 290.29
  Q 96.90 311.11 99.99 331.71
  Q 100.07 332.21 99.58 332.36
  L 96.57 333.27
  Z"
/>
<path fill="#cacaca" d="
  M 136.61 291.20
  L 137.90 291.33
  Q 138.40 291.38 138.38 291.88
  Q 137.56 308.28 140.18 324.49
  Q 140.27 325.07 139.70 325.17
  L 137.64 325.56
  Q 136.96 325.69 136.85 324.99
  Q 134.36 308.39 135.14 291.59
  A 0.67 0.66 -5.8 0 1 135.65 290.97
  Q 135.89 290.91 136.12 291.05
  Q 136.35 291.17 136.61 291.20
  Z"
/>
<path fill="#cacaca" d="
  M 172.88 318.99
  C 171.49 310.26 171.64 302.28 171.49 293.53
  Q 171.48 292.80 172.20 292.94
  L 173.61 293.22
  Q 174.13 293.32 174.10 293.85
  Q 173.47 306.35 175.40 318.71
  Q 175.47 319.21 174.98 319.31
  L 173.67 319.55
  Q 172.99 319.67 172.88 318.99
  Z"
/>
<path fill="#cacaca" d="
  M 207.30 313.77
  Q 207.15 313.72 207.00 313.67
  A 0.20 0.19 -84.9 0 1 206.88 313.52
  C 206.61 311.65 204.52 293.74 207.25 294.87
  A 0.94 0.94 0.0 0 1 207.83 295.78
  Q 207.35 304.32 208.70 312.75
  A 1.14 1.11 81.1 0 1 207.78 314.05
  Q 207.68 314.07 207.52 313.90
  Q 207.43 313.81 207.30 313.77
  Z"
/>
<path fill="#cacaca" d="
  M 377.88 318.35
  A 0.25 0.25 0.0 0 1 377.65 318.08
  L 379.13 303.04
  A 3.84 0.77 -84.4 0 1 380.27 299.29
  L 380.73 299.34
  A 3.84 0.77 -84.4 0 1 381.12 303.24
  L 379.64 318.27
  A 0.25 0.25 0.0 0 1 379.37 318.50
  L 377.88 318.35
  Z"
/>
<path fill="#cacaca" d="
  M 410.92 325.75
  Q 410.22 325.44 410.38 324.69
  Q 413.14 312.47 413.01 299.94
  Q 413.01 299.36 413.59 299.35
  L 414.99 299.34
  Q 415.69 299.33 415.68 300.04
  Q 415.49 312.53 413.08 324.77
  C 412.82 326.13 412.08 326.25 410.92 325.75
  Z"
/>
<path fill="#cacaca" d="
  M 445.88 333.64
  Q 445.06 333.59 445.23 332.79
  Q 448.57 317.23 448.82 301.44
  C 448.85 299.87 448.10 299.66 450.10 299.09
  A 1.46 1.46 0.0 0 1 451.96 300.49
  Q 452.05 317.12 448.49 333.33
  A 0.55 0.55 0.0 0 1 447.92 333.76
  L 445.88 333.64
  Z"
/>
<path fill="#cacaca" d="
  M 525.41 351.39
  A 0.79 0.79 0.0 0 1 524.76 350.44
  Q 530.19 325.39 530.24 299.76
  A 0.51 0.51 0.0 0 1 530.75 299.25
  L 535.18 299.25
  Q 535.91 299.25 535.88 299.98
  Q 534.92 326.00 529.77 351.52
  Q 529.66 352.06 529.12 351.98
  L 525.41 351.39
  Z"
/>
<path fill="#cacaca" d="
  M 554.89 358.48
  A 0.38 0.37 12.8 0 1 554.60 358.03
  Q 560.84 329.34 560.96 299.97
  Q 560.96 299.51 561.42 299.51
  L 566.23 299.50
  Q 566.94 299.49 566.93 300.21
  Q 566.81 330.02 560.51 359.17
  Q 560.41 359.66 559.92 359.55
  L 554.89 358.48
  Z"
/>
<path fill="#cacaca" d="
  M 485.98 343.19
  A 1.41 1.40 -75.9 0 1 484.99 341.53
  Q 489.55 321.20 489.27 300.36
  A 0.60 0.60 0.0 0 1 489.87 299.75
  L 493.19 299.75
  Q 493.81 299.75 493.79 300.36
  Q 493.38 321.49 489.32 341.76
  C 488.84 344.13 487.84 343.73 485.98 343.19
  Z"
/>
<path fill="#cacaca" d="
  M 210.26 323.11
  Q 210.93 322.97 211.11 323.63
  Q 213.45 331.84 217.55 339.89
  Q 217.89 340.55 217.10 340.96
  A 0.76 0.75 61.6 0 1 216.08 340.65
  Q 211.78 332.69 209.27 324.00
  Q 209.09 323.36 209.74 323.22
  L 210.26 323.11
  Z"
/>
<path fill="#cacaca" d="
  M 367.69 345.07
  C 366.74 344.81 366.85 344.05 367.27 343.35
  Q 371.70 336.05 374.49 327.97
  Q 374.67 327.43 375.21 327.61
  L 375.97 327.87
  A 0.53 0.53 0.0 0 1 376.30 328.56
  Q 373.21 336.96 368.69 344.67
  Q 368.34 345.25 367.69 345.07
  Z"
/>
<path fill="#cacaca" d="
  M 176.61 332.72
  L 177.84 332.47
  A 0.69 0.69 0.0 0 1 178.63 332.95
  Q 182.13 344.96 188.05 356.00
  A 0.48 0.48 0.0 0 1 187.90 356.62
  L 186.73 357.45
  Q 186.13 357.87 185.79 357.22
  Q 179.75 345.87 176.13 333.51
  Q 175.94 332.85 176.61 332.72
  Z"
/>
<path fill="#cacaca" d="
  M 397.08 363.05
  C 395.77 362.47 395.37 362.09 396.21 360.70
  Q 402.50 350.41 406.36 339.08
  Q 406.51 338.64 406.98 338.63
  Q 409.07 338.61 408.47 340.35
  Q 404.39 352.27 398.05 362.74
  A 0.77 0.77 0.0 0 1 397.08 363.05
  Z"
/>
<path fill="#cacaca" d="
  M 143.76 342.09
  A 0.32 0.32 0.0 0 1 144.16 342.31
  Q 148.79 358.28 156.64 372.94
  A 0.63 0.63 0.0 0 1 156.37 373.80
  L 154.43 374.77
  Q 153.94 375.01 153.68 374.53
  Q 145.78 359.63 141.02 343.44
  A 0.55 0.55 0.0 0 1 141.40 342.75
  L 143.76 342.09
  Z"
/>
<path fill="#cacaca" d="
  M 235.08 362.95
  C 233.92 366.20 223.57 352.44 221.88 350.03
  Q 221.62 349.66 221.88 349.28
  C 222.45 348.44 223.05 348.58 223.60 349.33
  Q 228.63 356.34 234.91 362.26
  Q 235.22 362.55 235.08 362.95
  Z"
/>
<path fill="#cacaca" d="
  M 426.94 381.31
  Q 426.57 381.21 426.33 380.96
  Q 425.96 380.59 426.23 380.14
  Q 434.80 366.07 440.23 350.52
  A 0.51 0.50 -71.7 0 1 440.86 350.20
  L 442.98 350.85
  A 0.59 0.58 18.3 0 1 443.36 351.60
  Q 437.81 367.49 429.09 381.89
  Q 428.81 382.35 428.30 382.21
  Q 427.50 381.99 426.94 381.31
  Z"
/>
<rect fill="#cacaca" x="-0.92" y="-9.44" transform="translate(355.56,359.89) rotate(44.3)" width="1.84" height="18.88" rx="0.27"/>
<path fill="#cacaca" d="
  M 120.66 393.80
  L 118.11 395.24
  Q 117.53 395.57 117.21 394.98
  Q 107.15 376.08 101.12 355.52
  Q 100.91 354.82 101.61 354.63
  L 104.29 353.91
  Q 104.98 353.72 105.18 354.41
  Q 111.01 374.55 120.89 393.02
  Q 121.15 393.52 120.66 393.80
  Z"
/>
<path fill="#cacaca" d="
  M 463.00 404.46
  L 461.03 403.01
  Q 460.52 402.64 460.86 402.09
  Q 471.77 384.37 478.50 364.67
  A 0.79 0.79 0.0 0 1 479.26 364.14
  C 482.35 364.15 482.80 365.34 481.82 368.00
  Q 474.80 387.11 464.56 404.15
  A 1.08 1.08 0.0 0 1 463.00 404.46
  Z"
/>
<path fill="#cacaca" d="
  M 85.07 412.10
  A 0.23 0.23 0.0 0 1 84.98 412.41
  L 81.51 414.37
  A 0.74 0.73 -28.6 0 1 80.50 414.08
  Q 68.46 391.52 61.23 367.00
  Q 60.83 365.66 62.18 365.26
  L 65.00 364.43
  Q 65.48 364.29 65.73 364.73
  C 66.47 366.03 66.67 367.72 66.99 368.74
  Q 73.92 390.74 85.07 412.10
  Z"
/>
<path fill="#cacaca" d="
  M 210.18 388.93
  C 204.28 382.44 198.51 376.89 193.45 369.55
  Q 193.14 369.10 193.62 368.83
  L 194.82 368.15
  A 0.67 0.67 0.0 0 1 195.70 368.35
  Q 202.95 378.62 212.14 387.20
  Q 212.61 387.64 212.11 388.06
  L 211.01 388.99
  A 0.60 0.60 0.0 0 1 210.18 388.93
  Z"
/>
<path fill="#cacaca" d="
  M 258.25 379.48
  C 256.07 379.94 244.35 372.16 242.10 370.50
  Q 241.71 370.21 241.87 369.75
  C 242.15 368.92 242.93 368.86 243.61 369.35
  Q 250.51 374.31 258.42 377.88
  A 0.85 0.85 0.0 0 1 258.25 379.48
  Z"
/>
<path fill="#cacaca" d="
  M 324.14 381.08
  Q 323.30 380.48 324.45 379.69
  Q 324.82 379.43 325.25 379.27
  Q 332.75 376.33 339.49 371.94
  A 1.08 1.06 -60.2 0 1 340.10 371.77
  C 341.06 371.79 341.74 372.61 340.81 373.25
  Q 333.47 378.26 325.12 381.21
  Q 324.60 381.40 324.14 381.08
  Z"
/>
<path fill="#cacaca" d="
  M 31.53 375.01
  Q 31.38 374.51 31.89 374.36
  L 36.50 373.00
  Q 37.13 372.81 37.31 373.44
  Q 45.28 401.19 58.96 426.60
  A 0.80 0.79 -28.4 0 1 58.63 427.67
  L 54.42 429.93
  Q 54.05 430.13 53.85 429.76
  Q 39.69 403.61 31.53 375.01
  Z"
/>
<path fill="#cacaca" d="
  M 389.21 374.00
  Q 389.52 374.00 389.67 374.36
  A 0.55 0.55 0.0 0 1 389.60 374.90
  Q 381.61 385.10 371.64 393.37
  Q 371.28 393.66 370.96 393.33
  L 369.96 392.33
  Q 369.45 391.83 370.00 391.37
  Q 379.67 383.48 387.30 373.61
  Q 387.61 373.21 388.11 373.24
  Q 388.60 373.28 388.86 373.78
  A 0.40 0.39 76.4 0 0 389.21 374.00
  Z"
/>
<path fill="#cacaca" d="
  M 495.77 423.60
  Q 495.30 423.30 495.59 422.82
  Q 508.90 401.11 517.24 377.02
  Q 517.40 376.54 517.88 376.69
  L 521.75 377.89
  Q 522.25 378.05 522.07 378.54
  Q 513.45 403.21 499.90 425.54
  A 0.55 0.54 -58.2 0 1 499.14 425.72
  L 495.77 423.60
  Z"
/>
<path fill="#cacaca" d="
  M 267.84 383.35
  A 0.55 0.54 -71.3 0 1 267.49 382.64
  L 267.76 381.94
  Q 267.94 381.46 268.43 381.61
  Q 276.91 384.19 285.73 385.01
  A 0.82 0.82 0.0 0 1 286.46 385.95
  C 286.08 388.33 270.25 384.08 267.84 383.35
  Z"
/>
<path fill="#cacaca" d="
  M 296.43 387.03
  A 0.65 0.64 11.7 0 1 295.83 386.13
  L 296.04 385.63
  Q 296.19 385.31 296.54 385.29
  Q 305.41 384.99 314.03 382.85
  A 0.61 0.60 -19.7 0 1 314.72 383.17
  L 314.97 383.69
  A 0.66 0.66 0.0 0 1 314.54 384.62
  Q 305.63 386.92 296.43 387.03
  Z"
/>
<path fill="#cacaca" d="
  M 521.92 440.04
  A 0.60 0.59 -58.4 0 1 521.73 439.23
  Q 536.87 414.53 546.35 387.14
  A 0.50 0.49 -71.4 0 1 546.97 386.83
  L 551.52 388.32
  A 0.77 0.77 0.0 0 1 552.00 389.31
  Q 542.16 417.28 526.75 442.62
  A 0.38 0.37 30.6 0 1 526.23 442.75
  L 521.92 440.04
  Z"
/>
<path fill="#cacaca" d="
  M 185.53 415.80
  C 177.70 407.34 170.16 400.02 163.53 390.40
  A 0.48 0.47 -34.2 0 1 163.66 389.73
  L 165.43 388.54
  Q 165.98 388.17 166.36 388.71
  Q 175.83 402.17 187.90 413.37
  Q 188.33 413.78 187.92 414.20
  L 186.39 415.81
  A 0.60 0.59 45.3 0 1 185.53 415.80
  Z"
/>
<path fill="#cacaca" d="
  M 418.00 396.42
  Q 418.17 396.55 418.28 396.72
  A 0.72 0.72 0.0 0 1 418.24 397.57
  Q 407.66 410.64 394.89 421.57
  Q 394.47 421.94 394.11 421.50
  L 392.63 419.69
  Q 392.31 419.30 392.69 418.98
  Q 405.34 408.44 415.54 395.53
  Q 415.89 395.09 416.43 395.26
  Q 416.91 395.42 417.26 395.79
  Q 417.47 396.00 418.00 396.42
  Z"
/>
<path fill="#cacaca" d="
  M 221.73 398.34
  A 0.62 0.62 0.0 0 1 221.60 397.46
  L 222.34 396.48
  Q 222.76 395.94 223.31 396.34
  Q 233.46 403.72 244.93 408.81
  Q 245.51 409.07 245.25 409.66
  L 244.72 410.86
  Q 244.48 411.41 243.92 411.16
  Q 232.14 405.92 221.73 398.34
  Z"
/>
<path fill="#cacaca" d="
  M 336.03 413.13
  L 335.70 411.93
  A 0.50 0.50 0.0 0 1 336.00 411.33
  Q 347.75 406.88 358.28 400.02
  Q 358.72 399.73 359.06 400.14
  L 360.00 401.26
  A 0.55 0.54 53.8 0 1 359.88 402.07
  Q 349.07 409.01 337.09 413.66
  Q 336.27 413.98 336.03 413.13
  Z"
/>
<path fill="#cacaca" d="
  M 157.25 447.04
  Q 141.77 432.41 129.48 415.01
  Q 129.18 414.59 129.59 414.28
  L 131.76 412.61
  A 0.93 0.93 0.0 0 1 133.09 412.81
  Q 145.09 430.00 160.52 444.20
  A 0.62 0.62 0.0 0 1 160.52 445.12
  L 158.37 447.05
  Q 157.80 447.56 157.25 447.04
  Z"
/>
<path fill="#cacaca" d="
  M 257.24 415.50
  L 257.68 414.33
  Q 257.89 413.75 258.48 413.92
  Q 270.66 417.53 283.31 418.75
  Q 283.73 418.79 283.67 419.21
  L 283.44 420.75
  Q 283.37 421.26 282.85 421.22
  Q 269.99 420.05 257.63 416.30
  A 0.61 0.61 0.0 0 1 257.24 415.50
  Z"
/>
<path fill="#cacaca" d="
  M 302.50 421.25
  C 301.36 421.32 299.24 421.74 297.78 421.47
  A 1.26 1.26 0.0 0 1 297.97 418.97
  Q 310.34 418.59 322.29 415.58
  Q 323.00 415.40 323.10 416.12
  L 323.28 417.33
  A 0.69 0.68 78.9 0 1 322.77 418.10
  Q 312.77 420.62 302.50 421.25
  Z"
/>
<path fill="#cacaca" d="
  M 450.50 422.38
  A 1.15 1.15 0.0 0 1 450.77 424.05
  Q 437.76 440.56 421.60 454.01
  Q 421.23 454.32 420.76 454.21
  Q 418.98 453.78 418.64 451.64
  Q 418.56 451.18 418.92 450.88
  Q 434.86 437.50 447.78 421.21
  Q 448.11 420.80 448.54 421.09
  L 450.50 422.38
  Z"
/>
<path fill="#cacaca" d="
  M 200.39 427.97
  Q 199.66 427.44 200.20 426.72
  L 201.27 425.32
  Q 201.68 424.78 202.23 425.18
  Q 215.58 434.85 230.64 441.56
  Q 231.23 441.82 230.94 442.40
  L 229.97 444.27
  Q 229.71 444.78 229.18 444.55
  Q 214.22 437.88 200.39 427.97
  Z"
/>
<path fill="#cacaca" d="
  M 351.66 447.13
  C 349.56 447.97 348.31 447.87 348.41 445.20
  Q 348.43 444.80 348.80 444.66
  Q 364.13 438.81 377.89 429.86
  Q 378.38 429.54 378.72 430.02
  L 379.97 431.85
  Q 380.29 432.29 379.83 432.59
  Q 366.44 441.24 351.66 447.13
  Z"
/>
<path fill="#cacaca" d="
  M 129.25 476.96
  Q 110.22 459.27 95.27 438.03
  Q 94.96 437.59 95.40 437.27
  L 98.50 435.02
  Q 99.04 434.62 99.43 435.17
  Q 114.06 455.98 132.72 473.25
  Q 133.13 473.63 132.76 474.04
  L 130.20 476.92
  A 0.67 0.67 0.0 0 1 129.25 476.96
  Z"
/>
<path fill="#cacaca" d="
  M 483.62 447.51
  A 0.83 0.83 0.0 0 1 483.78 448.70
  Q 467.68 469.07 447.75 485.73
  A 0.49 0.48 -39.7 0 1 447.06 485.67
  L 444.49 482.58
  Q 444.13 482.15 444.56 481.80
  Q 464.17 465.46 479.95 445.39
  A 0.50 0.49 -52.3 0 1 480.63 445.30
  L 483.62 447.51
  Z"
/>
<path fill="#cacaca" d="
  M 279.75 457.54
  C 268.96 456.64 257.48 454.48 246.81 451.11
  Q 246.25 450.93 246.43 450.38
  L 247.11 448.27
  A 0.49 0.49 0.0 0 1 247.71 447.96
  Q 263.68 452.80 280.30 454.30
  Q 280.80 454.34 280.73 454.83
  L 280.43 457.00
  A 0.63 0.63 0.0 0 1 279.75 457.54
  Z"
/>
<path fill="#cacaca" d="
  M 298.00 457.37
  L 298.00 455.33
  A 0.53 0.53 0.0 0 1 298.51 454.80
  Q 315.11 454.12 331.25 450.20
  A 0.48 0.47 -12.1 0 1 331.83 450.57
  L 332.23 452.74
  Q 332.34 453.32 331.77 453.46
  Q 315.43 457.53 298.61 457.96
  Q 298.00 457.98 298.00 457.37
  Z"
/>
<path fill="#cacaca" d="
  M 108.97 500.59
  Q 87.16 480.47 70.14 456.17
  A 0.60 0.59 54.8 0 1 70.28 455.35
  L 74.15 452.61
  A 0.64 0.64 0.0 0 1 75.04 452.76
  Q 91.75 476.37 112.91 496.12
  Q 113.37 496.54 112.94 497.00
  L 109.63 500.56
  A 0.47 0.46 -47.2 0 1 108.97 500.59
  Z"
/>
<path fill="#cacaca" d="
  M 175.63 462.19
  A 0.57 0.57 0.0 0 1 175.49 461.41
  L 177.20 458.85
  A 0.64 0.63 -54.9 0 1 178.10 458.69
  Q 195.04 471.17 214.28 479.66
  Q 214.86 479.91 214.58 480.49
  L 213.24 483.25
  Q 213.01 483.71 212.53 483.50
  Q 193.02 474.69 175.63 462.19
  Z"
/>
<path fill="#cacaca" d="
  M 508.96 467.20
  Q 509.45 467.57 509.07 468.05
  Q 490.76 491.31 468.02 510.26
  Q 467.55 510.65 467.16 510.18
  L 464.20 506.69
  A 0.83 0.83 0.0 0 1 464.30 505.51
  Q 486.48 487.04 504.31 464.34
  Q 504.65 463.91 505.08 464.24
  L 508.96 467.20
  Z"
/>
<path fill="#cacaca" d="
  M 402.30 468.27
  C 391.53 476.43 376.40 482.99 364.41 487.68
  A 0.58 0.57 -21.3 0 1 363.67 487.36
  L 362.54 484.52
  A 0.63 0.62 -21.5 0 1 362.90 483.70
  Q 382.56 476.30 400.11 464.75
  Q 400.58 464.44 400.89 464.91
  L 402.47 467.29
  Q 402.85 467.86 402.30 468.27
  Z"
/>
<path fill="#cacaca" d="
  M 274.33 499.77
  C 260.72 498.17 247.39 495.80 234.34 491.57
  Q 233.93 491.44 234.06 491.03
  L 234.90 488.24
  Q 235.13 487.50 235.87 487.73
  Q 254.23 493.44 273.30 495.45
  C 273.97 495.52 275.87 495.24 276.75 495.81
  Q 277.17 496.08 277.29 496.58
  C 277.93 499.23 276.83 500.07 274.33 499.77
  Z"
/>
<path fill="#cacaca" d="
  M 341.81 491.28
  L 342.36 494.06
  A 0.57 0.57 0.0 0 1 341.93 494.72
  Q 321.40 499.64 300.29 500.59
  Q 299.29 500.64 299.25 499.64
  L 299.13 496.91
  Q 299.10 496.35 299.66 496.33
  Q 320.58 495.72 340.86 490.67
  Q 341.66 490.47 341.81 491.28
  Z"
/>
<path fill="#cacaca" d="
  M 151.02 494.86
  Q 150.57 494.53 150.89 494.08
  L 153.10 490.92
  A 0.63 0.62 -54.3 0 1 153.98 490.77
  Q 174.56 505.72 197.77 516.14
  Q 198.32 516.38 198.09 516.94
  L 196.63 520.47
  A 0.54 0.52 22.5 0 1 195.93 520.75
  Q 172.06 510.23 151.02 494.86
  Z"
/>
<path fill="#cacaca" d="
  M 378.50 525.53
  L 376.93 521.74
  Q 376.70 521.19 377.26 520.98
  Q 401.09 511.94 422.46 498.05
  Q 422.91 497.75 423.21 498.20
  L 425.34 501.41
  Q 425.71 501.98 425.14 502.34
  Q 403.31 516.44 379.04 525.76
  A 0.42 0.42 0.0 0 1 378.50 525.53
  Z"
/>
<path fill="#cacaca" d="
  M 132.74 520.23
  A 0.28 0.27 35.2 0 1 132.67 519.85
  L 135.62 515.71
  A 0.68 0.67 35.5 0 1 136.57 515.56
  Q 159.96 532.62 186.43 544.36
  Q 186.89 544.56 186.69 545.03
  L 184.73 549.47
  A 0.64 0.64 0.0 0 1 183.88 549.80
  Q 156.74 537.72 132.74 520.23
  Z"
/>
<path fill="#cacaca" d="
  M 390.22 555.48
  A 0.42 0.42 0.0 0 1 389.68 555.24
  L 387.92 550.63
  Q 387.68 550.01 388.31 549.77
  Q 415.28 539.52 439.47 523.80
  Q 440.06 523.41 440.44 524.00
  L 443.03 527.96
  Q 443.35 528.46 442.85 528.78
  Q 417.96 544.94 390.22 555.48
  Z"
/>
<path fill="#cacaca" d="
  M 272.83 540.48
  C 255.59 538.75 239.09 535.70 222.08 530.61
  A 0.54 0.54 0.0 0 1 221.71 529.94
  L 222.84 526.11
  A 0.59 0.59 0.0 0 1 223.57 525.72
  Q 247.99 533.29 273.49 535.44
  A 0.58 0.57 -83.8 0 1 274.01 536.09
  L 273.48 539.96
  Q 273.40 540.53 272.83 540.48
  Z"
/>
<path fill="#cacaca" d="
  M 301.28 541.48
  Q 300.59 541.52 300.56 540.82
  L 300.37 536.74
  A 0.49 0.49 0.0 0 1 300.85 536.23
  Q 326.34 535.33 351.07 529.20
  A 0.67 0.67 0.0 0 1 351.89 529.73
  L 352.52 533.31
  A 0.78 0.77 -12.0 0 1 351.93 534.21
  Q 326.94 540.08 301.28 541.48
  Z"
/>
<path fill="#cacaca" d="
  M 271.10 571.95
  C 251.42 570.56 231.25 566.37 213.05 560.72
  Q 212.64 560.59 212.77 560.18
  L 214.25 555.36
  Q 214.40 554.87 214.89 555.02
  Q 242.63 563.48 271.54 566.02
  Q 272.07 566.07 272.03 566.60
  L 271.65 571.48
  Q 271.61 571.99 271.10 571.95
  Z"
/>
<path fill="#cacaca" d="
  M 360.45 564.80
  C 342.29 569.29 321.76 572.68 302.10 572.78
  A 0.56 0.55 0.0 0 1 301.54 572.23
  L 301.48 567.36
  Q 301.48 566.83 302.00 566.82
  Q 330.97 565.89 359.08 558.91
  A 0.67 0.67 0.0 0 1 359.89 559.41
  L 360.92 564.05
  Q 361.05 564.65 360.45 564.80
  Z"
/>
</svg>
