<?xml version="1.0" encoding="UTF-8" standalone="no"?>
<!DOCTYPE svg PUBLIC "-//W3C//DTD SVG 1.1//EN" "http://www.w3.org/Graphics/SVG/1.1/DTD/svg11.dtd">
<svg xmlns="http://www.w3.org/2000/svg" version="1.1" viewBox="0.00 0.00 488.00 503.00">
<g stroke-width="2.00" fill="none" stroke-linecap="butt">
<path stroke="#9ca1ff" vector-effect="non-scaling-stroke" d="
  M 42.64 179.16
  Q 136.32 225.95 230.06 272.64
  Q 240.01 277.59 250.56 272.32
  Q 353.91 220.70 457.22 169.00
  C 470.60 162.30 472.84 143.61 460.99 134.19
  Q 459.11 132.69 449.25 127.76
  Q 349.42 77.83 249.50 28.06
  Q 239.68 23.17 230.51 27.76
  Q 126.58 79.69 22.68 131.67
  C 12.58 136.73 8.36 148.93 13.14 158.99
  Q 16.29 165.63 23.88 169.59
  Q 33.26 174.48 42.64 179.16"
/>
<path stroke="#9ca1ff" vector-effect="non-scaling-stroke" d="
  M 239.54 334.83
  Q 141.13 285.85 42.83 236.68
  C 39.98 235.25 35.28 233.36 32.81 233.51
  C 18.77 234.32 8.47 244.91 11.68 258.97
  C 14.12 269.62 21.20 272.33 32.15 277.81
  Q 127.46 325.50 222.81 373.14
  C 233.92 378.70 239.76 381.72 250.56 376.32
  Q 350.47 326.42 450.33 276.44
  Q 460.07 271.56 463.25 268.25
  C 479.02 251.78 458.95 225.58 438.56 235.81
  Q 339.59 285.45 240.49 334.82
  Q 240.02 335.06 239.54 334.83"
/>
<path stroke="#9ca1ff" vector-effect="non-scaling-stroke" d="
  M 468.23 363.27
  C 471.35 349.34 460.02 336.18 445.63 337.84
  Q 441.55 338.31 431.97 343.12
  Q 336.37 391.09 240.86 438.82
  A 1.91 1.89 -44.7 0 1 239.15 438.82
  Q 143.50 391.00 47.68 343.09
  Q 38.29 338.40 33.74 337.82
  C 21.98 336.35 10.56 346.81 11.10 358.97
  C 11.51 368.24 16.56 374.01 24.68 378.07
  Q 123.73 427.63 222.80 477.14
  C 233.93 482.70 239.75 485.72 250.56 480.32
  Q 351.29 430.02 451.97 379.61
  C 460.19 375.49 466.35 371.70 468.23 363.27"
/>
<path stroke="#9ca1ff" vector-effect="non-scaling-stroke" d="
  M 400.88 150.53
  A 0.33 0.33 0.0 0 0 400.88 149.94
  L 240.18 69.58
  A 0.33 0.33 0.0 0 0 239.88 69.58
  L 78.80 149.95
  A 0.33 0.33 0.0 0 0 78.80 150.54
  L 239.82 231.04
  A 0.33 0.33 0.0 0 0 240.12 231.04
  L 400.88 150.53"
/>
</g>
<path fill="#ffffff" d="
  M 0.00 0.00
  L 488.00 0.00
  L 488.00 503.00
  L 0.00 503.00
  L 0.00 0.00
  Z
  M 42.64 179.16
  Q 136.32 225.95 230.06 272.64
  Q 240.01 277.59 250.56 272.32
  Q 353.91 220.70 457.22 169.00
  C 470.60 162.30 472.84 143.61 460.99 134.19
  Q 459.11 132.69 449.25 127.76
  Q 349.42 77.83 249.50 28.06
  Q 239.68 23.17 230.51 27.76
  Q 126.58 79.69 22.68 131.67
  C 12.58 136.73 8.36 148.93 13.14 158.99
  Q 16.29 165.63 23.88 169.59
  Q 33.26 174.48 42.64 179.16
  Z
  M 239.54 334.83
  Q 141.13 285.85 42.83 236.68
  C 39.98 235.25 35.28 233.36 32.81 233.51
  C 18.77 234.32 8.47 244.91 11.68 258.97
  C 14.12 269.62 21.20 272.33 32.15 277.81
  Q 127.46 325.50 222.81 373.14
  C 233.92 378.70 239.76 381.72 250.56 376.32
  Q 350.47 326.42 450.33 276.44
  Q 460.07 271.56 463.25 268.25
  C 479.02 251.78 458.95 225.58 438.56 235.81
  Q 339.59 285.45 240.49 334.82
  Q 240.02 335.06 239.54 334.83
  Z
  M 468.23 363.27
  C 471.35 349.34 460.02 336.18 445.63 337.84
  Q 441.55 338.31 431.97 343.12
  Q 336.37 391.09 240.86 438.82
  A 1.91 1.89 -44.7 0 1 239.15 438.82
  Q 143.50 391.00 47.68 343.09
  Q 38.29 338.40 33.74 337.82
  C 21.98 336.35 10.56 346.81 11.10 358.97
  C 11.51 368.24 16.56 374.01 24.68 378.07
  Q 123.73 427.63 222.80 477.14
  C 233.93 482.70 239.75 485.72 250.56 480.32
  Q 351.29 430.02 451.97 379.61
  C 460.19 375.49 466.35 371.70 468.23 363.27
  Z"
/>
<path fill="#3843ff" d="
  M 42.64 179.16
  Q 33.26 174.48 23.88 169.59
  Q 16.29 165.63 13.14 158.99
  C 8.36 148.93 12.58 136.73 22.68 131.67
  Q 126.58 79.69 230.51 27.76
  Q 239.68 23.17 249.50 28.06
  Q 349.42 77.83 449.25 127.76
  Q 459.11 132.69 460.99 134.19
  C 472.84 143.61 470.60 162.30 457.22 169.00
  Q 353.91 220.70 250.56 272.32
  Q 240.01 277.59 230.06 272.64
  Q 136.32 225.95 42.64 179.16
  Z
  M 400.88 150.53
  A 0.33 0.33 0.0 0 0 400.88 149.94
  L 240.18 69.58
  A 0.33 0.33 0.0 0 0 239.88 69.58
  L 78.80 149.95
  A 0.33 0.33 0.0 0 0 78.80 150.54
  L 239.82 231.04
  A 0.33 0.33 0.0 0 0 240.12 231.04
  L 400.88 150.53
  Z"
/>
<path fill="#ffffff" d="
  M 400.88 150.53
  L 240.12 231.04
  A 0.33 0.33 0.0 0 1 239.82 231.04
  L 78.80 150.54
  A 0.33 0.33 0.0 0 1 78.80 149.95
  L 239.88 69.58
  A 0.33 0.33 0.0 0 1 240.18 69.58
  L 400.88 149.94
  A 0.33 0.33 0.0 0 1 400.88 150.53
  Z"
/>
<path fill="#3843ff" d="
  M 240.49 334.82
  Q 339.59 285.45 438.56 235.81
  C 458.95 225.58 479.02 251.78 463.25 268.25
  Q 460.07 271.56 450.33 276.44
  Q 350.47 326.42 250.56 376.32
  C 239.76 381.72 233.92 378.70 222.81 373.14
  Q 127.46 325.50 32.15 277.81
  C 21.20 272.33 14.12 269.62 11.68 258.97
  C 8.47 244.91 18.77 234.32 32.81 233.51
  C 35.28 233.36 39.98 235.25 42.83 236.68
  Q 141.13 285.85 239.54 334.83
  Q 240.02 335.06 240.49 334.82
  Z"
/>
<path fill="#3843ff" d="
  M 445.63 337.84
  C 460.02 336.18 471.35 349.34 468.23 363.27
  C 466.35 371.70 460.19 375.49 451.97 379.61
  Q 351.29 430.02 250.56 480.32
  C 239.75 485.72 233.93 482.70 222.80 477.14
  Q 123.73 427.63 24.68 378.07
  C 16.56 374.01 11.51 368.24 11.10 358.97
  C 10.56 346.81 21.98 336.35 33.74 337.82
  Q 38.29 338.40 47.68 343.09
  Q 143.50 391.00 239.15 438.82
  A 1.91 1.89 -44.7 0 0 240.86 438.82
  Q 336.37 391.09 431.97 343.12
  Q 441.55 338.31 445.63 337.84
  Z"
/>
</svg>
