<?xml version="1.0" encoding="UTF-8" standalone="no"?>
<!DOCTYPE svg PUBLIC "-//W3C//DTD SVG 1.1//EN" "http://www.w3.org/Graphics/SVG/1.1/DTD/svg11.dtd">
<svg xmlns="http://www.w3.org/2000/svg" version="1.1" viewBox="0.00 0.00 496.00 509.00">
<g stroke-width="2.00" fill="none" stroke-linecap="butt">
<path stroke="#9ca1ff" vector-effect="non-scaling-stroke" d="
  M 61.87 24.77
  C 40.03 31.20 22.16 49.43 17.32 71.91
  Q 16.02 77.94 16.01 91.81
  Q 15.98 180.47 16.01 269.14
  Q 16.02 277.91 16.58 282.22
  C 19.22 302.61 33.25 319.95 51.56 328.97
  C 65.37 335.77 80.62 335.89 95.61 335.50
  Q 104.33 335.28 108.57 333.21
  Q 115.06 330.07 118.05 323.04
  C 123.84 309.50 115.41 295.53 100.91 293.88
  C 87.64 292.38 65.28 298.54 58.77 280.09
  Q 57.49 276.47 57.49 266.76
  Q 57.52 179.66 57.48 92.53
  Q 57.47 82.43 58.97 78.12
  C 63.55 65.00 74.65 64.77 88.21 64.76
  Q 172.78 64.73 257.34 64.77
  C 270.61 64.77 280.90 65.56 285.37 78.61
  Q 286.58 82.17 286.50 88.49
  C 286.28 104.89 284.38 121.53 303.13 126.68
  C 305.62 127.36 310.36 127.23 312.74 126.45
  Q 327.56 121.65 328.35 105.21
  Q 329.09 89.66 327.22 74.24
  C 324.45 51.37 303.46 30.43 281.65 24.61
  C 273.68 22.48 263.64 22.77 256.00 22.76
  Q 219.55 22.70 86.34 22.77
  C 78.43 22.78 69.25 22.60 61.87 24.77"
/>
<path stroke="#9ca1ff" vector-effect="non-scaling-stroke" d="
  M 163.17 432.21
  C 169.56 461.39 195.56 481.19 225.25 481.22
  Q 313.84 481.28 402.43 481.24
  Q 416.26 481.23 422.37 480.14
  C 451.72 474.93 474.19 449.33 474.22 419.18
  Q 474.29 327.36 474.23 235.54
  Q 474.23 229.84 473.92 226.09
  C 471.39 195.46 445.06 168.76 414.00 168.75
  Q 321.79 168.74 229.58 168.76
  Q 217.07 168.77 210.66 170.17
  C 186.66 175.40 168.10 194.59 163.12 218.26
  Q 161.75 224.82 161.75 237.35
  Q 161.74 325.45 161.77 413.54
  Q 161.77 425.85 163.17 432.21"
/>
<path stroke="#9ca1ff" vector-effect="non-scaling-stroke" d="
  M 432.50 231.37
  A 21.11 21.11 0.0 0 0 411.39 210.26
  L 224.37 210.26
  A 21.11 21.11 0.0 0 0 203.26 231.37
  L 203.26 418.39
  A 21.11 21.11 0.0 0 0 224.37 439.50
  L 411.39 439.50
  A 21.11 21.11 0.0 0 0 432.50 418.39
  L 432.50 231.37"
/>
</g>
<path fill="#ffffff" d="
  M 0.00 0.00
  L 496.00 0.00
  L 496.00 509.00
  L 0.00 509.00
  L 0.00 0.00
  Z
  M 61.87 24.77
  C 40.03 31.20 22.16 49.43 17.32 71.91
  Q 16.02 77.94 16.01 91.81
  Q 15.98 180.47 16.01 269.14
  Q 16.02 277.91 16.58 282.22
  C 19.22 302.61 33.25 319.95 51.56 328.97
  C 65.37 335.77 80.62 335.89 95.61 335.50
  Q 104.33 335.28 108.57 333.21
  Q 115.06 330.07 118.05 323.04
  C 123.84 309.50 115.41 295.53 100.91 293.88
  C 87.64 292.38 65.28 298.54 58.77 280.09
  Q 57.49 276.47 57.49 266.76
  Q 57.52 179.66 57.48 92.53
  Q 57.47 82.43 58.97 78.12
  C 63.55 65.00 74.65 64.77 88.21 64.76
  Q 172.78 64.73 257.34 64.77
  C 270.61 64.77 280.90 65.56 285.37 78.61
  Q 286.58 82.17 286.50 88.49
  C 286.28 104.89 284.38 121.53 303.13 126.68
  C 305.62 127.36 310.36 127.23 312.74 126.45
  Q 327.56 121.65 328.35 105.21
  Q 329.09 89.66 327.22 74.24
  C 324.45 51.37 303.46 30.43 281.65 24.61
  C 273.68 22.48 263.64 22.77 256.00 22.76
  Q 219.55 22.70 86.34 22.77
  C 78.43 22.78 69.25 22.60 61.87 24.77
  Z
  M 163.17 432.21
  C 169.56 461.39 195.56 481.19 225.25 481.22
  Q 313.84 481.28 402.43 481.24
  Q 416.26 481.23 422.37 480.14
  C 451.72 474.93 474.19 449.33 474.22 419.18
  Q 474.29 327.36 474.23 235.54
  Q 474.23 229.84 473.92 226.09
  C 471.39 195.46 445.06 168.76 414.00 168.75
  Q 321.79 168.74 229.58 168.76
  Q 217.07 168.77 210.66 170.17
  C 186.66 175.40 168.10 194.59 163.12 218.26
  Q 161.75 224.82 161.75 237.35
  Q 161.74 325.45 161.77 413.54
  Q 161.77 425.85 163.17 432.21
  Z"
/>
<path fill="#3843ff" d="
  M 17.32 71.91
  C 22.16 49.43 40.03 31.20 61.87 24.77
  C 69.25 22.60 78.43 22.78 86.34 22.77
  Q 219.55 22.70 256.00 22.76
  C 263.64 22.77 273.68 22.48 281.65 24.61
  C 303.46 30.43 324.45 51.37 327.22 74.24
  Q 329.09 89.66 328.35 105.21
  Q 327.56 121.65 312.74 126.45
  C 310.36 127.23 305.62 127.36 303.13 126.68
  C 284.38 121.53 286.28 104.89 286.50 88.49
  Q 286.58 82.17 285.37 78.61
  C 280.90 65.56 270.61 64.77 257.34 64.77
  Q 172.78 64.73 88.21 64.76
  C 74.65 64.77 63.55 65.00 58.97 78.12
  Q 57.47 82.43 57.48 92.53
  Q 57.52 179.66 57.49 266.76
  Q 57.49 276.47 58.77 280.09
  C 65.28 298.54 87.64 292.38 100.91 293.88
  C 115.41 295.53 123.84 309.50 118.05 323.04
  Q 115.06 330.07 108.57 333.21
  Q 104.33 335.28 95.61 335.50
  C 80.62 335.89 65.37 335.77 51.56 328.97
  C 33.25 319.95 19.22 302.61 16.58 282.22
  Q 16.02 277.91 16.01 269.14
  Q 15.98 180.47 16.01 91.81
  Q 16.02 77.94 17.32 71.91
  Z"
/>
<path fill="#3843ff" d="
  M 225.25 481.22
  C 195.56 481.19 169.56 461.39 163.17 432.21
  Q 161.77 425.85 161.77 413.54
  Q 161.74 325.45 161.75 237.35
  Q 161.75 224.82 163.12 218.26
  C 168.10 194.59 186.66 175.40 210.66 170.17
  Q 217.07 168.77 229.58 168.76
  Q 321.79 168.74 414.00 168.75
  C 445.06 168.76 471.39 195.46 473.92 226.09
  Q 474.23 229.84 474.23 235.54
  Q 474.29 327.36 474.22 419.18
  C 474.19 449.33 451.72 474.93 422.37 480.14
  Q 416.26 481.23 402.43 481.24
  Q 313.84 481.28 225.25 481.22
  Z
  M 432.50 231.37
  A 21.11 21.11 0.0 0 0 411.39 210.26
  L 224.37 210.26
  A 21.11 21.11 0.0 0 0 203.26 231.37
  L 203.26 418.39
  A 21.11 21.11 0.0 0 0 224.37 439.50
  L 411.39 439.50
  A 21.11 21.11 0.0 0 0 432.50 418.39
  L 432.50 231.37
  Z"
/>
<rect fill="#ffffff" x="203.26" y="210.26" width="229.24" height="229.24" rx="21.11"/>
</svg>
