<?xml version="1.0" encoding="UTF-8" standalone="no"?>
<!DOCTYPE svg PUBLIC "-//W3C//DTD SVG 1.1//EN" "http://www.w3.org/Graphics/SVG/1.1/DTD/svg11.dtd">
<svg xmlns="http://www.w3.org/2000/svg" version="1.1" viewBox="0.00 0.00 471.00 489.00">
<g stroke-width="2.00" fill="none" stroke-linecap="butt">
<path stroke="#9ca1ff" vector-effect="non-scaling-stroke" d="
  M 363.76 146.32
  C 327.59 110.37 291.79 74.02 255.61 38.08
  C 249.67 32.18 245.70 27.94 238.96 26.57
  Q 229.08 24.57 221.05 31.82
  C 213.16 38.96 204.06 48.58 198.48 54.14
  Q 126.33 126.07 102.05 150.80
  C 69.60 183.83 49.76 228.04 47.86 274.74
  C 43.81 374.30 118.93 460.89 218.01 469.48
  Q 279.73 474.83 332.36 442.91
  C 408.52 396.74 441.85 302.53 411.16 218.56
  C 400.99 190.73 384.73 167.15 363.76 146.32"
/>
<path stroke="#9ca1ff" vector-effect="non-scaling-stroke" d="
  M 184.97 126.81
  C 165.47 146.54 144.17 167.29 130.97 180.96
  Q 95.84 217.35 90.28 266.25
  C 80.77 349.93 144.35 424.67 228.73 428.49
  C 290.70 431.30 348.87 393.37 371.05 335.47
  C 389.12 288.32 381.87 235.50 351.46 195.12
  C 344.07 185.32 334.78 176.31 325.21 166.81
  Q 303.88 145.64 235.38 76.94
  Q 235.05 76.61 234.71 76.94
  Q 209.75 101.73 184.97 126.81"
/>
</g>
<path fill="#ffffff" d="
  M 0.00 0.00
  L 471.00 0.00
  L 471.00 489.00
  L 0.00 489.00
  L 0.00 0.00
  Z
  M 363.76 146.32
  C 327.59 110.37 291.79 74.02 255.61 38.08
  C 249.67 32.18 245.70 27.94 238.96 26.57
  Q 229.08 24.57 221.05 31.82
  C 213.16 38.96 204.06 48.58 198.48 54.14
  Q 126.33 126.07 102.05 150.80
  C 69.60 183.83 49.76 228.04 47.86 274.74
  C 43.81 374.30 118.93 460.89 218.01 469.48
  Q 279.73 474.83 332.36 442.91
  C 408.52 396.74 441.85 302.53 411.16 218.56
  C 400.99 190.73 384.73 167.15 363.76 146.32
  Z"
/>
<path fill="#3843ff" d="
  M 363.76 146.32
  C 384.73 167.15 400.99 190.73 411.16 218.56
  C 441.85 302.53 408.52 396.74 332.36 442.91
  Q 279.73 474.83 218.01 469.48
  C 118.93 460.89 43.81 374.30 47.86 274.74
  C 49.76 228.04 69.60 183.83 102.05 150.80
  Q 126.33 126.07 198.48 54.14
  C 204.06 48.58 213.16 38.96 221.05 31.82
  Q 229.08 24.57 238.96 26.57
  C 245.70 27.94 249.67 32.18 255.61 38.08
  C 291.79 74.02 327.59 110.37 363.76 146.32
  Z
  M 184.97 126.81
  C 165.47 146.54 144.17 167.29 130.97 180.96
  Q 95.84 217.35 90.28 266.25
  C 80.77 349.93 144.35 424.67 228.73 428.49
  C 290.70 431.30 348.87 393.37 371.05 335.47
  C 389.12 288.32 381.87 235.50 351.46 195.12
  C 344.07 185.32 334.78 176.31 325.21 166.81
  Q 303.88 145.64 235.38 76.94
  Q 235.05 76.61 234.71 76.94
  Q 209.75 101.73 184.97 126.81
  Z"
/>
<path fill="#ffffff" d="
  M 184.97 126.81
  Q 209.75 101.73 234.71 76.94
  Q 235.05 76.61 235.38 76.94
  Q 303.88 145.64 325.21 166.81
  C 334.78 176.31 344.07 185.32 351.46 195.12
  C 381.87 235.50 389.12 288.32 371.05 335.47
  C 348.87 393.37 290.70 431.30 228.73 428.49
  C 144.35 424.67 80.77 349.93 90.28 266.25
  Q 95.84 217.35 130.97 180.96
  C 144.17 167.29 165.47 146.54 184.97 126.81
  Z"
/>
</svg>
