<svg xmlns="http://www.w3.org/2000/svg" width="56" height="56" fill="none"><g filter="url(#a)"><rect width="56" height="56" fill="url(#b)" rx="12.031"/><rect width="56" height="56" fill="url(#c)" fill-opacity=".2" rx="12.031" style="mix-blend-mode:soft-light"/></g><g filter="url(#d)"><g filter="url(#e)"><path fill="#fff" fill-rule="evenodd" d="M30.756 21.516a5.521 5.521 0 0 0 .008 5.427l9.513 16.803a2.938 2.938 0 1 0 5.108-2.904l-2.233-3.91h3a2.943 2.943 0 1 0 0-5.887H39.79l-6.645-11.637a.693.693 0 0 0-1.207.004l-1.183 2.104z" clip-rule="evenodd"/></g><g filter="url(#f)"><path fill="#fff" d="M33.315 9.883a2.943 2.943 0 0 0-4.02 1.077l-.59 1.022-.519-.899a2.943 2.943 0 0 0-5.097 2.943l2.207 3.824.032-.02-9.277 16.07 5.098 2.943 13.244-22.94a2.943 2.943 0 0 0-1.078-4.02z"/></g><g filter="url(#g)"><path fill="#fff" d="M30.566 31.045a2.74 2.74 0 0 1 2.39 1.398l1.986 3.529a.644.644 0 0 1-.561.96H11.568a2.943 2.943 0 1 1 0-5.887h18.998z"/></g><g filter="url(#h)"><path fill="#fff" d="m19.294 39.315-2.565 4.43a2.975 2.975 0 0 1-5.157-2.965l1.304-2.282c.107-.188.255-.353.447-.456 1.855-.995 5.272-.822 5.97 1.273z"/></g></g><defs><filter id="a" width="56.875" height="56.875" x="-.438" y="-.438" color-interpolation-filters="sRGB" filterUnits="userSpaceOnUse"><feFlood flood-opacity="0" result="BackgroundImageFix"/><feBlend in="SourceGraphic" in2="BackgroundImageFix" result="shape"/><feColorMatrix in="SourceAlpha" result="hardAlpha" values="0 0 0 0 0 0 0 0 0 0 0 0 0 0 0 0 0 0 127 0"/><feOffset dx=".438" dy=".438"/><feGaussianBlur stdDeviation=".219"/><feComposite in2="hardAlpha" k2="-1" k3="1" operator="arithmetic"/><feColorMatrix values="0 0 0 0 1 0 0 0 0 1 0 0 0 0 1 0 0 0 0.2 0"/><feBlend in2="shape" result="effect1_innerShadow_577_8517"/><feColorMatrix in="SourceAlpha" result="hardAlpha" values="0 0 0 0 0 0 0 0 0 0 0 0 0 0 0 0 0 0 127 0"/><feOffset dx="-.438" dy="-.438"/><feGaussianBlur stdDeviation=".219"/><feComposite in2="hardAlpha" k2="-1" k3="1" operator="arithmetic"/><feColorMatrix values="0 0 0 0 0 0 0 0 0 0 0 0 0 0 0 0 0 0 0.05 0"/><feBlend in2="effect1_innerShadow_577_8517" result="effect2_innerShadow_577_8517"/></filter><filter id="d" width="50.094" height="45.373" x="3.813" y="8.395" color-interpolation-filters="sRGB" filterUnits="userSpaceOnUse"><feFlood flood-opacity="0" result="BackgroundImageFix"/><feColorMatrix in="SourceAlpha" result="hardAlpha" values="0 0 0 0 0 0 0 0 0 0 0 0 0 0 0 0 0 0 127 0"/><feOffset dy="1.094"/><feGaussianBlur stdDeviation=".875"/><feColorMatrix values="0 0 0 0 0 0 0 0 0 0 0 0 0 0 0 0 0 0 0.4 0"/><feBlend in2="BackgroundImageFix" result="effect1_dropShadow_577_8517"/><feColorMatrix in="SourceAlpha" result="hardAlpha" values="0 0 0 0 0 0 0 0 0 0 0 0 0 0 0 0 0 0 127 0"/><feOffset dy="3.719"/><feGaussianBlur stdDeviation="2.406"/><feColorMatrix values="0 0 0 0 0 0 0 0 0 0 0 0 0 0 0 0 0 0 0.2 0"/><feBlend in2="effect1_dropShadow_577_8517" result="effect2_dropShadow_577_8517"/><feBlend in="SourceGraphic" in2="effect2_dropShadow_577_8517" result="shape"/><feColorMatrix in="SourceAlpha" result="hardAlpha" values="0 0 0 0 0 0 0 0 0 0 0 0 0 0 0 0 0 0 127 0"/><feOffset dy="-.656"/><feGaussianBlur stdDeviation=".547"/><feComposite in2="hardAlpha" k2="-1" k3="1" operator="arithmetic"/><feColorMatrix values="0 0 0 0 0.3 0 0 0 0 0.604785 0 0 0 0 1 0 0 0 0.3 0"/><feBlend in2="shape" result="effect3_innerShadow_577_8517"/></filter><filter id="e" width="19.047" height="27.928" x="30.047" y="17.309" color-interpolation-filters="sRGB" filterUnits="userSpaceOnUse"><feFlood flood-opacity="0" result="BackgroundImageFix"/><feBlend in="SourceGraphic" in2="BackgroundImageFix" result="shape"/><feColorMatrix in="SourceAlpha" result="hardAlpha" values="0 0 0 0 0 0 0 0 0 0 0 0 0 0 0 0 0 0 127 0"/><feOffset dy="-1.75"/><feGaussianBlur stdDeviation="1.094"/><feComposite in2="hardAlpha" k2="-1" k3="1" operator="arithmetic"/><feColorMatrix values="0 0 0 0 0 0 0 0 0 0 0 0 0 0 0 0 0 0 0.25 0"/><feBlend in2="shape" result="effect1_innerShadow_577_8517"/></filter><filter id="f" width="18.738" height="29.105" x="16.051" y="7.738" color-interpolation-filters="sRGB" filterUnits="userSpaceOnUse"><feFlood flood-opacity="0" result="BackgroundImageFix"/><feBlend in="SourceGraphic" in2="BackgroundImageFix" result="shape"/><feColorMatrix in="SourceAlpha" result="hardAlpha" values="0 0 0 0 0 0 0 0 0 0 0 0 0 0 0 0 0 0 127 0"/><feOffset dy="-1.75"/><feGaussianBlur stdDeviation="1.094"/><feComposite in2="hardAlpha" k2="-1" k3="1" operator="arithmetic"/><feColorMatrix values="0 0 0 0 0 0 0 0 0 0 0 0 0 0 0 0 0 0 0.25 0"/><feBlend in2="shape" result="effect1_innerShadow_577_8517"/></filter><filter id="g" width="26.402" height="7.637" x="8.625" y="29.295" color-interpolation-filters="sRGB" filterUnits="userSpaceOnUse"><feFlood flood-opacity="0" result="BackgroundImageFix"/><feBlend in="SourceGraphic" in2="BackgroundImageFix" result="shape"/><feColorMatrix in="SourceAlpha" result="hardAlpha" values="0 0 0 0 0 0 0 0 0 0 0 0 0 0 0 0 0 0 127 0"/><feOffset dy="-1.75"/><feGaussianBlur stdDeviation="1.094"/><feComposite in2="hardAlpha" k2="-1" k3="1" operator="arithmetic"/><feColorMatrix values="0 0 0 0 0 0 0 0 0 0 0 0 0 0 0 0 0 0 0.25 0"/><feBlend in2="shape" result="effect1_innerShadow_577_8517"/></filter><filter id="h" width="8.113" height="9.525" x="11.18" y="35.705" color-interpolation-filters="sRGB" filterUnits="userSpaceOnUse"><feFlood flood-opacity="0" result="BackgroundImageFix"/><feBlend in="SourceGraphic" in2="BackgroundImageFix" result="shape"/><feColorMatrix in="SourceAlpha" result="hardAlpha" values="0 0 0 0 0 0 0 0 0 0 0 0 0 0 0 0 0 0 127 0"/><feOffset dy="-1.75"/><feGaussianBlur stdDeviation="1.094"/><feComposite in2="hardAlpha" k2="-1" k3="1" operator="arithmetic"/><feColorMatrix values="0 0 0 0 0 0 0 0 0 0 0 0 0 0 0 0 0 0 0.25 0"/><feBlend in2="shape" result="effect1_innerShadow_577_8517"/></filter><linearGradient id="b" x1="28" x2="28" y1="0" y2="56" gradientUnits="userSpaceOnUse"><stop stop-color="#1BB3F3"/><stop offset="1" stop-color="#186CE6"/></linearGradient><linearGradient id="c" x1="28" x2="28" y1="0" y2="56" gradientUnits="userSpaceOnUse"><stop offset=".328" stop-color="#fff"/><stop offset="1" stop-opacity=".1"/></linearGradient></defs></svg>