<svg xmlns="http://www.w3.org/2000/svg" width="96" height="96" fill="none"><path fill="#fff" d="M0 0h96v96H0z"/><path fill="#252F3E" d="M36.936 44.236c0 .636.07 1.153.194 1.531.141.379.317.792.564 1.239a.735.735 0 0 1 .124.396c0 .172-.106.344-.335.516l-1.11.723a.859.859 0 0 1-.46.154c-.175 0-.352-.086-.528-.24a5.34 5.34 0 0 1-.635-.81 13.354 13.354 0 0 1-.546-1.014c-1.375 1.583-3.102 2.374-5.183 2.374-1.48 0-2.661-.413-3.525-1.239-.864-.826-1.305-1.927-1.305-3.303 0-1.463.53-2.65 1.605-3.545s2.503-1.342 4.318-1.342c.6 0 1.217.052 1.869.138a24.47 24.47 0 0 1 2.027.378v-1.256c0-1.307-.282-2.22-.828-2.753-.565-.533-1.516-.791-2.874-.791-.617 0-1.251.069-1.904.223-.652.155-1.286.344-1.903.585-.282.12-.494.19-.617.224a1.106 1.106 0 0 1-.282.052c-.247 0-.37-.172-.37-.534V35.1c0-.275.035-.482.123-.602s.247-.24.493-.361c.617-.31 1.358-.568 2.222-.775a10.94 10.94 0 0 1 2.75-.327c2.097 0 3.63.465 4.618 1.394.97.93 1.463 2.34 1.463 4.233v5.575h.035zM29.78 46.85c.582 0 1.181-.103 1.816-.31a3.935 3.935 0 0 0 1.675-1.1 2.71 2.71 0 0 0 .599-1.102c.106-.413.176-.912.176-1.497v-.723a15.078 15.078 0 0 0-1.621-.292 13.61 13.61 0 0 0-1.657-.103c-1.181 0-2.045.223-2.627.688-.582.464-.864 1.118-.864 1.979 0 .808.212 1.41.652 1.823.424.43 1.04.637 1.851.637zm14.155 1.858c-.317 0-.528-.051-.67-.172-.14-.103-.264-.344-.37-.67l-4.142-13.301c-.106-.344-.159-.568-.159-.689 0-.275.141-.43.423-.43h1.728c.335 0 .564.052.687.172.141.104.247.345.353.672l2.961 11.39 2.75-11.39c.088-.345.194-.568.335-.672.141-.103.388-.172.705-.172h1.41c.335 0 .565.052.706.172.14.104.264.345.334.672l2.786 11.528 3.05-11.529c.105-.344.228-.567.352-.67.14-.104.37-.173.687-.173h1.64c.282 0 .44.138.44.43 0 .087-.017.173-.035.276a2.4 2.4 0 0 1-.123.43l-4.249 13.3c-.105.345-.229.568-.37.671-.14.104-.37.172-.67.172h-1.516c-.334 0-.564-.051-.705-.172-.14-.12-.264-.344-.335-.688l-2.732-11.098L46.49 47.85c-.088.344-.194.568-.334.688-.142.12-.388.172-.706.172h-1.516zm22.652.465c-.917 0-1.833-.103-2.715-.31-.881-.206-1.569-.43-2.027-.688-.282-.155-.476-.327-.546-.482a1.19 1.19 0 0 1-.106-.482v-.877c0-.361.141-.534.405-.534.106 0 .212.018.318.052.105.035.264.103.44.172a9.76 9.76 0 0 0 1.94.602 10.84 10.84 0 0 0 2.097.207c1.11 0 1.974-.19 2.574-.568.6-.378.916-.93.916-1.634 0-.482-.158-.878-.476-1.205-.317-.327-.916-.62-1.78-.895l-2.556-.774c-1.287-.396-2.239-.98-2.82-1.755-.582-.757-.882-1.6-.882-2.495 0-.723.159-1.36.476-1.91a4.46 4.46 0 0 1 1.27-1.41 5.651 5.651 0 0 1 1.833-.896c.705-.206 1.445-.292 2.22-.292.388 0 .794.017 1.182.069.405.051.775.12 1.146.19.352.085.687.171 1.004.274a3.9 3.9 0 0 1 .74.31c.248.138.424.275.53.43.105.138.158.327.158.568v.809c0 .361-.14.55-.405.55-.141 0-.37-.069-.67-.206-1.005-.447-2.133-.671-3.385-.671-1.004 0-1.798.155-2.344.482-.547.327-.829.825-.829 1.531 0 .482.177.895.53 1.222.352.327 1.004.654 1.938.946l2.503.774c1.27.396 2.186.947 2.733 1.652.546.706.81 1.514.81 2.409 0 .74-.158 1.41-.458 1.996a4.654 4.654 0 0 1-1.287 1.514c-.546.43-1.198.74-1.956.964a8.572 8.572 0 0 1-2.521.36z"/><path fill="#F90" d="M69.953 57.6C64.148 61.78 55.716 64 48.466 64c-10.16 0-19.316-3.664-26.231-9.754-.547-.482-.053-1.136.6-.757 7.48 4.232 16.705 6.795 26.249 6.795 6.439 0 13.512-1.307 20.022-3.99.97-.431 1.8.618.847 1.306z"/><path fill="#F90" d="M72.34 54.9c-.738-.925-4.885-.445-6.765-.222-.563.068-.65-.412-.14-.772 3.303-2.262 8.732-1.61 9.365-.857.632.772-.176 6.068-3.268 8.604-.475.394-.932.189-.72-.325.702-1.697 2.266-5.52 1.528-6.428z"/></svg>