<svg xmlns="http://www.w3.org/2000/svg" width="96" height="96" fill="none"><path fill="#fff" d="M0 0h96v96H0z"/><path fill="#36C5F0" fill-rule="evenodd" d="M43.2 30c-1.99.002-3.601 1.658-3.6 3.7-.001 2.04 1.61 3.697 3.6 3.698h3.601v-3.697c.002-2.041-1.61-3.698-3.602-3.701.002 0 .002 0 0 0zm0 9.867h-9.6c-1.99.001-3.602 1.658-3.6 3.699-.003 2.041 1.61 3.698 3.6 3.7h9.6c1.99 0 3.601-1.657 3.6-3.699.001-2.042-1.61-3.699-3.6-3.7z" clip-rule="evenodd"/><path fill="#2EB67D" fill-rule="evenodd" d="M66 43.566c.001-2.041-1.61-3.698-3.6-3.7-1.99.002-3.603 1.659-3.601 3.7v3.7h3.6c1.99 0 3.602-1.657 3.601-3.7zm-9.6 0v-9.867c.001-2.04-1.61-3.696-3.6-3.699-1.99.002-3.601 1.658-3.6 3.7v9.866c-.003 2.041 1.61 3.698 3.6 3.7 1.99 0 3.601-1.657 3.6-3.7z" clip-rule="evenodd"/><path fill="#ECB22E" fill-rule="evenodd" d="M52.8 67c1.99-.001 3.601-1.658 3.6-3.7.001-2.04-1.61-3.697-3.6-3.698h-3.601V63.3c-.002 2.04 1.61 3.696 3.6 3.699zm0-9.868h9.6c1.99-.002 3.601-1.658 3.6-3.7.003-2.04-1.61-3.697-3.6-3.7h-9.6c-1.99.001-3.601 1.658-3.6 3.7-.001 2.042 1.61 3.698 3.6 3.7z" clip-rule="evenodd"/><path fill="#E01E5A" fill-rule="evenodd" d="M30 53.433c-.002 2.04 1.61 3.697 3.6 3.699 1.99-.002 3.603-1.658 3.601-3.7v-3.699h-3.6c-1.99.002-3.602 1.658-3.601 3.7zm9.6 0v9.866c-.003 2.042 1.61 3.698 3.6 3.701 1.99-.001 3.601-1.658 3.6-3.7v-9.864c.003-2.042-1.61-3.698-3.6-3.701-1.99 0-3.601 1.656-3.6 3.698z" clip-rule="evenodd"/></svg>