<svg xmlns="http://www.w3.org/2000/svg" width="96" height="96" fill="none"><path fill="#fff" d="M0 0h96v96H0z"/><path fill="#283343" d="M26.79 62.299c-1.681 0-3.044-1.414-3.044-3.16 0-1.744 1.363-3.158 3.043-3.158 1.681 0 3.043 1.414 3.043 3.159 0 1.745-1.362 3.159-3.043 3.159zm3.052.4c0 .29.488 1.102 1.086 1.102h.387c.15 0 .273-.125.273-.277V54.88h-.001a.279.279 0 0 0-.085-.185.27.27 0 0 0-.187-.077h-1.2a.275.275 0 0 0-.272.262h-.001v.703c-.735-.92-1.895-1.302-3.057-1.302-2.643 0-4.785 2.176-4.785 4.86S24.142 64 26.785 64c1.162 0 2.43-.458 3.057-1.302v.002zm4.614-1.237c.8.563 1.675.837 2.516.837.8 0 1.628-.422 1.628-1.156 0-.979-1.804-1.131-2.937-1.523-1.133-.39-2.11-1.2-2.11-2.509 0-2.003 1.759-2.83 3.4-2.83 1.039 0 2.111.347 2.807.846.24.184.093.396.093.396l-.663.963c-.075.108-.23.195-.393.085-.447-.3-.945-.59-1.845-.59-1.114 0-1.603.47-1.603 1.051 0 .699.783.918 1.7 1.156 1.6.437 3.346.964 3.346 2.956 0 1.765-1.626 2.856-3.423 2.856-1.362 0-2.521-.394-3.494-1.119-.202-.206-.06-.397-.06-.397l.66-.958c.134-.18.303-.117.378-.065zm14.94 1.238c0 .289.487 1.101 1.085 1.101h.387c.15 0 .273-.125.273-.277V54.88h-.001a.28.28 0 0 0-.085-.185.271.271 0 0 0-.187-.077h-1.2a.275.275 0 0 0-.271.262h-.002v.703c-.735-.92-1.895-1.302-3.057-1.302-2.643 0-4.785 2.176-4.785 4.86S43.695 64 46.338 64c1.162 0 2.43-.458 3.057-1.302v.002zm-3.053-.401c-1.681 0-3.044-1.414-3.044-3.16 0-1.744 1.363-3.158 3.044-3.158 1.68 0 3.042 1.414 3.042 3.159 0 1.745-1.362 3.159-3.042 3.159zm15.55-3.775c0-2.522-1.566-4.223-4.063-4.223-1.192 0-2.168.7-2.513 1.302v-.009l-.002.007c0-.608-.487-.963-1.086-.963h-.386a.276.276 0 0 0-.273.278v8.645h.002a.275.275 0 0 0 .271.262h1.2a.297.297 0 0 0 .054-.005l.023-.008.027-.008a.178.178 0 0 0 .03-.017c.005-.002.01-.004.015-.008a.29.29 0 0 0 .034-.027l.005-.004a.277.277 0 0 0 .084-.186h.002v-5.106c0-1.354 1.08-2.452 2.414-2.452s2.415 1.098 2.415 2.452v4.269l.001-.002.001.012v.828h.002a.275.275 0 0 0 .271.262h1.2a.296.296 0 0 0 .054-.005l.02-.007c.01-.003.02-.005.03-.01.01-.003.019-.01.028-.015.006-.003.012-.005.017-.009a.309.309 0 0 0 .031-.025l.008-.007a.28.28 0 0 0 .084-.184h.001v-5.037zm9.36 4.176c0 .289.488 1.101 1.086 1.101h.388c.15 0 .273-.125.273-.277V54.88h-.001a.28.28 0 0 0-.085-.185.27.27 0 0 0-.187-.077h-1.2a.27.27 0 0 0-.187.076.28.28 0 0 0-.085.186h-.001v.703c-.736-.92-1.895-1.302-3.058-1.302-2.642 0-4.785 2.176-4.785 4.86S65.554 64 68.196 64c1.163 0 2.43-.458 3.057-1.302v.002zm-3.052-.401c-1.68 0-3.043-1.414-3.043-3.16 0-1.744 1.362-3.158 3.043-3.158 1.68 0 3.043 1.414 3.043 3.159 0 1.745-1.363 3.159-3.043 3.159z"/><path fill="url(#a)" d="M53.025 39.582c-2.316 0-4.193 1.907-4.193 4.259 0 2.352 1.877 4.259 4.193 4.259s4.193-1.907 4.193-4.26c0-2.351-1.877-4.258-4.193-4.258zm-10.894 0c-2.316 0-4.194 1.907-4.194 4.259 0 2.352 1.878 4.259 4.194 4.259s4.193-1.907 4.193-4.26c0-2.351-1.877-4.258-4.193-4.258zm9.64-5.323c0 2.352-1.877 4.259-4.193 4.259s-4.194-1.907-4.194-4.26c0-2.351 1.878-4.258 4.194-4.258s4.193 1.907 4.193 4.259z"/><defs><radialGradient id="a" cx="0" cy="0" r="1" gradientTransform="matrix(1277.58 0 0 1199.35 47.578 1019.19)" gradientUnits="userSpaceOnUse"><stop stop-color="#FFB900"/><stop offset=".6" stop-color="#F95D8F"/><stop offset=".999" stop-color="#F95353"/></radialGradient></defs></svg>