<?xml version="1.0" encoding="UTF-8" standalone="no"?>
<!DOCTYPE svg PUBLIC "-//W3C//DTD SVG 1.1//EN" "http://www.w3.org/Graphics/SVG/1.1/DTD/svg11.dtd">
<svg xmlns="http://www.w3.org/2000/svg" version="1.1" viewBox="0.00 0.00 3695.00 566.00">
<path fill="#0c23a1" d="
  M 183.32 0.00
  L 199.06 0.00
  C 282.64 1.41 368.74 30.11 368.95 130.52
  Q 369.01 158.89 369.00 169.74
  Q 369.00 170.25 368.50 170.25
  L 237.77 170.25
  A 0.55 0.55 0.0 0 1 237.22 169.70
  Q 237.32 156.09 237.23 142.46
  Q 237.15 129.45 235.54 123.12
  C 228.26 94.39 199.80 85.76 173.25 91.19
  C 151.89 95.56 140.07 112.54 138.81 133.61
  C 137.63 153.28 144.53 168.02 159.64 180.39
  Q 177.48 195.00 201.89 208.14
  C 235.76 226.37 270.29 243.66 302.48 264.78
  C 336.92 287.36 371.03 318.65 378.50 360.75
  C 383.79 390.50 382.80 424.84 376.81 454.65
  C 359.43 541.28 273.15 565.20 196.94 566.00
  L 187.20 566.00
  C 91.66 565.19 2.94 528.41 0.00 418.43
  L 0.00 371.98
  L 141.25 371.99
  A 0.45 0.45 0.0 0 1 141.70 372.43
  Q 141.81 393.93 141.96 415.50
  Q 142.06 429.56 143.39 435.39
  C 150.26 465.56 179.40 473.24 206.47 469.96
  C 228.22 467.32 241.01 455.50 246.31 434.98
  Q 249.78 421.52 248.23 408.75
  C 245.01 382.05 220.05 363.20 199.16 349.84
  C 151.57 319.42 98.86 297.45 55.31 261.45
  C 30.64 241.07 11.91 214.98 6.25 182.95
  Q -0.30 145.92 8.28 107.76
  C 27.02 24.38 109.17 1.25 183.32 0.00
  Z"
/>
<path fill="#0c23a1" d="
  M 3695.00 248.52
  L 3695.00 399.56
  Q 3694.31 412.42 3693.17 425.24
  C 3686.08 504.36 3626.57 542.61 3553.93 552.37
  C 3465.24 564.28 3340.68 546.69 3323.48 436.68
  Q 3319.81 413.24 3319.80 394.56
  Q 3319.71 285.65 3319.76 176.75
  C 3319.77 153.17 3321.45 127.97 3327.96 105.46
  C 3346.73 40.66 3402.20 12.62 3465.18 5.11
  Q 3518.22 -1.22 3570.74 8.22
  C 3624.13 17.82 3670.61 47.49 3686.98 101.74
  C 3694.95 128.16 3694.83 156.83 3694.12 184.63
  Q 3694.10 185.51 3693.22 185.51
  L 3562.53 185.48
  Q 3561.11 185.48 3561.14 184.05
  Q 3561.52 165.99 3560.77 147.25
  C 3559.70 120.63 3545.07 102.24 3517.99 98.29
  C 3476.49 92.24 3451.84 115.62 3451.78 156.56
  Q 3451.69 219.64 3451.76 404.75
  C 3451.76 409.89 3452.34 418.81 3453.70 424.35
  C 3457.92 441.51 3470.16 453.09 3486.95 457.90
  C 3507.28 463.72 3533.49 461.16 3549.10 445.30
  C 3559.29 434.95 3562.46 421.71 3562.48 407.16
  Q 3562.52 366.68 3562.49 326.26
  A 0.51 0.51 0.0 0 0 3561.98 325.75
  L 3509.12 325.75
  A 0.88 0.87 90.0 0 1 3508.25 324.87
  L 3508.25 249.29
  A 0.79 0.79 0.0 0 1 3509.04 248.50
  L 3695.00 248.52
  Z"
/>
<path fill="#0c23a1" d="
  M 2094.25 443.25
  C 2081.60 537.07 1991.61 563.28 1911.68 563.19
  C 1867.57 563.14 1821.56 557.35 1783.00 534.30
  C 1741.91 509.73 1721.81 468.78 1719.90 421.82
  Q 1719.05 400.92 1719.65 371.58
  Q 1719.66 371.00 1720.24 371.00
  L 1859.24 371.00
  Q 1859.75 371.00 1859.75 371.51
  Q 1859.74 392.15 1859.78 412.73
  Q 1859.81 427.31 1860.90 432.66
  C 1864.62 450.93 1877.67 462.66 1895.56 466.97
  C 1919.49 472.73 1952.13 467.62 1961.24 440.75
  C 1966.61 424.93 1968.08 404.53 1959.63 389.41
  C 1950.58 373.23 1934.32 360.45 1918.95 350.53
  C 1895.69 335.51 1871.08 322.50 1846.79 309.24
  C 1811.72 290.08 1775.09 267.49 1749.79 236.72
  C 1720.76 201.42 1718.15 152.05 1727.67 109.19
  C 1741.96 44.88 1797.56 14.76 1858.00 6.48
  Q 1910.01 -0.65 1962.00 6.77
  C 2031.65 16.71 2083.26 54.65 2084.35 130.94
  Q 2084.67 153.64 2084.44 170.85
  A 0.66 0.66 0.0 0 1 2083.78 171.50
  L 1954.75 171.50
  A 0.49 0.49 0.0 0 1 1954.26 171.01
  Q 1954.24 155.09 1954.26 139.00
  C 1954.29 104.97 1928.40 88.12 1896.51 92.38
  Q 1867.29 96.29 1859.32 122.20
  C 1856.27 132.14 1856.05 143.92 1858.40 154.08
  C 1863.78 177.35 1897.96 197.28 1917.41 207.86
  C 1950.50 225.86 1984.31 242.80 2015.98 263.28
  C 2050.40 285.53 2084.27 315.55 2093.18 357.06
  C 2099.12 384.74 2098.08 414.89 2094.25 443.25
  Z"
/>
<path fill="#0c23a1" d="
  M 684.37 57.49
  A 0.23 0.23 0.0 0 0 683.92 57.48
  L 610.49 544.56
  A 0.81 0.81 0.0 0 1 609.69 545.25
  L 468.21 545.25
  A 0.45 0.45 0.0 0 1 467.77 544.72
  L 565.46 17.30
  A 0.67 0.67 0.0 0 1 566.12 16.75
  L 799.54 16.75
  A 0.98 0.97 -5.3 0 1 800.50 17.54
  L 897.71 544.56
  A 0.59 0.58 -5.3 0 1 897.13 545.25
  L 756.60 545.25
  A 0.55 0.55 0.0 0 1 756.06 544.78
  L 684.37 57.49
  Z"
/>
<path fill="#0c23a1" d="
  M 1139.17 57.51
  A 0.15 0.15 0.0 0 0 1138.87 57.53
  L 1135.28 544.49
  A 0.77 0.76 -0.0 0 1 1134.51 545.25
  L 1004.26 545.25
  A 0.97 0.97 0.0 0 1 1003.29 544.26
  L 1014.71 17.39
  A 0.65 0.65 0.0 0 1 1015.36 16.75
  L 1229.73 16.75
  A 0.56 0.55 -4.2 0 1 1230.28 17.22
  L 1296.60 428.50
  A 0.21 0.21 0.0 0 0 1297.02 428.50
  L 1363.40 17.22
  Q 1363.48 16.75 1363.96 16.75
  L 1578.24 16.75
  A 0.50 0.50 0.0 0 1 1578.74 17.24
  L 1590.53 544.48
  A 0.76 0.75 -0.7 0 1 1589.77 545.25
  L 1459.01 545.25
  A 0.82 0.82 0.0 0 1 1458.19 544.44
  Q 1456.45 305.82 1454.69 66.86
  C 1454.68 64.38 1454.96 61.37 1454.38 58.56
  A 0.13 0.13 0.0 0 0 1454.13 58.57
  L 1363.79 544.55
  A 0.86 0.84 -84.6 0 1 1362.96 545.25
  L 1230.22 545.25
  A 0.56 0.56 0.0 0 1 1229.67 544.79
  L 1139.17 57.51
  Z"
/>
<path fill="#0c23a1" d="
  M 2369.79 559.52
  C 2318.83 555.01 2264.29 536.83 2238.31 488.69
  C 2222.77 459.86 2220.28 430.44 2220.28 398.19
  Q 2220.22 207.69 2220.26 17.26
  A 0.51 0.51 0.0 0 1 2220.77 16.75
  L 2353.23 16.75
  A 0.53 0.52 -0.0 0 1 2353.76 17.27
  Q 2353.75 215.75 2353.72 414.50
  C 2353.72 438.34 2366.63 458.94 2390.74 464.50
  C 2425.12 472.42 2457.26 453.36 2457.30 415.94
  Q 2457.52 216.56 2457.53 17.25
  A 0.50 0.50 0.0 0 1 2458.03 16.75
  L 2590.48 16.75
  A 0.52 0.52 0.0 0 1 2591.00 17.27
  Q 2591.00 204.12 2591.00 391.22
  C 2591.00 413.43 2590.65 433.73 2585.74 455.23
  C 2563.15 554.19 2451.57 566.75 2369.79 559.52
  Z"
/>
<path fill="#0c23a1" d="
  M 3057.72 440.59
  L 3057.85 440.19
  A 0.82 0.70 -40.6 0 0 3057.90 439.87
  L 3050.74 17.26
  A 0.50 0.50 0.0 0 1 3051.24 16.75
  L 3180.75 16.75
  A 0.50 0.50 0.0 0 1 3181.25 17.25
  L 3181.25 539.01
  Q 3181.25 539.56 3180.70 539.53
  C 3177.74 539.36 3174.61 539.74 3172.00 539.74
  Q 3085.38 539.76 2998.75 539.75
  Q 2996.23 539.75 2993.74 539.41
  Q 2993.16 539.33 2993.00 538.77
  L 2860.09 102.07
  A 0.22 0.22 0.0 0 0 2859.66 102.14
  L 2867.18 539.14
  Q 2867.19 539.72 2866.61 539.72
  L 2738.72 539.76
  A 1.22 1.22 0.0 0 1 2737.50 538.54
  L 2737.50 17.25
  A 0.50 0.50 0.0 0 1 2738.00 16.75
  L 2932.62 16.75
  A 1.20 1.19 -8.1 0 1 2933.77 17.61
  L 3057.45 440.58
  A 0.14 0.14 0.0 0 0 3057.72 440.59
  Z"
/>
</svg>
